<svg width="577" height="116" viewBox="0 0 577 116" fill="none" xmlns="http://www.w3.org/2000/svg">
<g clip-path="url(#clip0_41_2132)">
<path d="M33.9394 3.77814C34.2595 3.77802 34.5795 3.77779 34.8996 3.77746C35.593 3.77699 36.2863 3.77734 36.9796 3.77841C38.0106 3.78 39.0415 3.78008 40.0725 3.77985C41.8071 3.7795 43.5417 3.78038 45.2764 3.78195C46.993 3.78351 48.7095 3.78452 50.4261 3.7848C50.533 3.78482 50.6399 3.78484 50.75 3.78486C51.2928 3.78495 51.8357 3.78503 52.3785 3.7851C56.2197 3.78565 60.0608 3.78742 63.902 3.78991C67.6327 3.79233 71.3635 3.79419 75.0942 3.7953C75.2093 3.79533 75.3244 3.79537 75.4429 3.7954C76.5986 3.79575 77.7543 3.79609 78.91 3.79641C81.264 3.79708 83.6181 3.79782 85.9721 3.79861C86.1345 3.79866 86.1345 3.79866 86.3001 3.79872C93.5226 3.80113 100.745 3.8053 107.968 3.80973C107.972 10.47 107.976 17.1302 107.979 23.7904C107.979 23.8891 107.979 23.9877 107.979 24.0893C107.98 26.2328 107.98 28.3763 107.981 30.5199C107.981 31.5711 107.982 32.6223 107.982 33.6736C107.982 33.7782 107.982 33.8828 107.982 33.9905C107.983 37.3793 107.985 40.768 107.988 44.1567C107.99 47.64 107.992 51.1232 107.992 54.6065C107.992 55.0988 107.992 55.5912 107.992 56.0835C107.992 56.1804 107.992 56.2773 107.992 56.3771C107.993 57.9349 107.994 59.4927 107.996 61.0505C107.997 62.6178 107.998 64.1851 107.997 65.7524C107.997 66.6012 107.997 67.4499 107.999 68.2986C108 69.0763 108 69.8541 107.999 70.6318C107.999 70.9124 107.999 71.1931 108 71.4737C108.01 75.0806 107.527 78.1765 104.969 80.9241C102.762 83.0011 100.165 83.7634 97.2055 83.7183C94.4968 83.6221 92.1703 82.2843 90.3251 80.3463C88.3686 78.0422 87.8651 75.3952 87.8711 72.4405C87.871 72.2309 87.8709 72.0214 87.8708 71.8119C87.8705 71.2376 87.871 70.6633 87.8716 70.089C87.8722 69.4692 87.872 68.8493 87.8719 68.2294C87.8718 67.156 87.8722 66.0825 87.873 65.0091C87.874 63.4571 87.8744 61.905 87.8746 60.353C87.8748 57.8349 87.8757 55.3167 87.8769 52.7986C87.8781 50.3527 87.8791 47.9067 87.8796 45.4607C87.8796 45.3099 87.8797 45.1591 87.8797 45.0038C87.8799 44.2472 87.88 43.4907 87.8802 42.7342C87.8816 36.4593 87.8839 30.1843 87.8868 23.9094C81.0971 23.9171 74.3075 23.9269 67.5178 23.9395C66.7157 23.941 65.9135 23.9424 65.1113 23.9439C64.9516 23.9442 64.792 23.9445 64.6274 23.9448C62.0441 23.9494 59.4607 23.9527 56.8774 23.9554C54.2252 23.9583 51.5731 23.9626 48.921 23.9683C47.2854 23.9718 45.6498 23.9741 44.0142 23.975C42.8916 23.9757 41.7689 23.9778 40.6463 23.9811C39.9993 23.9829 39.3523 23.9841 38.7052 23.9836C38.1114 23.9832 37.5177 23.9846 36.9239 23.9873C36.7105 23.988 36.4971 23.9881 36.2836 23.9873C33.2747 23.9784 30.5384 24.6731 27.9049 26.1427C27.7791 26.2126 27.6534 26.2826 27.5239 26.3546C24.1849 28.3601 21.7525 31.78 20.7494 35.5439C20.7245 35.6366 20.6996 35.7294 20.6739 35.8249C20.1468 37.973 20.1733 40.1443 20.1774 42.3418C20.178 42.8068 20.1771 43.2717 20.1764 43.7367C20.1752 44.6447 20.1755 45.5528 20.1762 46.4608C20.1768 47.1995 20.1769 47.9382 20.1766 48.6769C20.1766 48.8353 20.1766 48.8353 20.1765 48.9968C20.1764 49.2114 20.1763 49.4259 20.1763 49.6405C20.1755 51.6471 20.1764 53.6537 20.1778 55.6603C20.1789 57.378 20.1787 59.0957 20.1775 60.8134C20.1761 62.8134 20.1756 64.8134 20.1764 66.8133C20.1765 67.027 20.1765 67.2407 20.1766 67.4544C20.1767 67.5595 20.1767 67.6647 20.1767 67.773C20.177 68.5098 20.1766 69.2467 20.176 69.9836C20.1752 70.883 20.1755 71.7823 20.1768 72.6817C20.1775 73.1396 20.1778 73.5974 20.1769 74.0554C20.157 77.3268 20.157 77.3268 20.7576 80.53C20.7853 80.6272 20.8131 80.7244 20.8417 80.8246C22.0006 84.721 24.596 88.04 28.1276 90.0196C30.5772 91.3482 33.056 91.9779 35.8263 91.98C36.01 91.9806 36.1936 91.9813 36.3773 91.982C36.8807 91.9838 37.3841 91.9847 37.8876 91.9856C38.4309 91.9866 38.9742 91.9884 39.5176 91.9901C40.4586 91.993 41.3995 91.9954 42.3405 91.9974C43.701 92.0004 45.0615 92.0041 46.422 92.008C48.6293 92.0143 50.8367 92.0199 53.044 92.0253C55.1881 92.0304 57.3322 92.0359 59.4763 92.0417C59.6085 92.042 59.7407 92.0424 59.8769 92.0428C60.54 92.0446 61.2032 92.0464 61.8663 92.0482C67.3669 92.0631 72.8674 92.0772 78.3679 92.0906C78.411 92.4929 78.4537 92.8952 78.4963 93.2976C78.5084 93.4111 78.5206 93.5247 78.5331 93.6416C78.6132 94.4003 78.6793 95.1375 78.6287 95.9003C78.6233 95.9848 78.618 96.0693 78.6125 96.1563C78.2835 100.935 76.231 105.342 72.6305 108.512C70.4123 110.369 67.4724 112.207 64.5124 112.211C64.4027 112.212 64.2931 112.212 64.1802 112.213C63.8119 112.215 63.4437 112.216 63.0755 112.217C62.8116 112.218 62.5476 112.22 62.2836 112.221C61.5642 112.225 60.8448 112.227 60.1254 112.23C59.3671 112.233 58.6089 112.237 57.8507 112.24C56.5714 112.246 55.2921 112.251 54.0129 112.256C52.2307 112.263 50.4485 112.271 48.6664 112.279C47.4142 112.285 46.1621 112.29 44.9099 112.296C44.6114 112.297 44.3129 112.298 44.0143 112.299C42.3496 112.307 40.6848 112.313 39.02 112.318C38.3377 112.32 37.6554 112.322 36.9732 112.325C36.2829 112.328 35.5927 112.33 34.9024 112.332C34.6455 112.333 34.3886 112.333 34.1317 112.335C32.2883 112.344 30.5032 112.281 28.6872 111.928C28.5637 111.904 28.4403 111.881 28.313 111.857C21.3531 110.519 15.2743 107.264 10.1711 102.337C10.064 102.235 9.95693 102.133 9.84661 102.027C9.22114 101.414 8.66134 100.765 8.11683 100.079C7.92607 99.8385 7.73229 99.601 7.53515 99.3663C6.72069 98.3943 6.01935 97.3686 5.34644 96.2944C5.29316 96.2095 5.23987 96.1245 5.18497 96.037C3.37632 93.12 2.02492 89.9672 1.14119 86.6469C1.09774 86.4855 1.09774 86.4855 1.05342 86.3208C0.95352 85.925 0.868519 85.5271 0.782598 85.128C0.762016 85.0396 0.741434 84.9513 0.720228 84.8602C0.144312 82.3358 0.176236 79.8064 0.16962 77.2321C0.167366 76.5702 0.162188 75.9083 0.157416 75.2464C0.148402 73.9307 0.142158 72.6149 0.136779 71.2991C0.132113 70.1796 0.126187 69.06 0.119528 67.9404C0.118553 67.7763 0.117576 67.6122 0.116571 67.4431C0.114575 67.1079 0.112578 66.7728 0.110579 66.4376C0.0898952 62.9422 0.0739954 59.4467 0.0600447 55.9512C0.0596928 55.863 0.0593409 55.7749 0.0589782 55.684C0.0582671 55.5057 0.0575542 55.3273 0.0568453 55.149C0.0510464 53.693 0.0444966 52.2369 0.037637 50.7809C0.0304647 49.2568 0.0238346 47.7327 0.0177322 46.2086C0.0143436 45.3642 0.0107534 44.5198 0.00660198 43.6754C0.00275989 42.8899 -0.00039469 42.1044 -0.00303601 41.319C-0.00410672 41.0339 -0.00540974 40.7487 -0.00698353 40.4636C-0.0191245 38.224 -0.0123617 35.9694 0.285467 33.7457C0.301898 33.6225 0.318324 33.4992 0.335253 33.3722C1.29516 26.6436 4.22095 20.1571 8.83044 15.1692C9.07735 14.9 9.31124 14.6258 9.54354 14.344C10.7983 12.8959 12.2937 11.6518 13.8221 10.5096C13.9072 10.4456 13.9922 10.3816 14.0798 10.3157C15.4523 9.28932 16.8685 8.4104 18.386 7.61947C18.4937 7.56211 18.6014 7.50474 18.7124 7.44564C21.8611 5.78196 25.3083 4.64298 28.8176 4.07247C28.9454 4.05005 29.0732 4.02763 29.2049 4.00453C30.7805 3.75685 32.3479 3.77388 33.9394 3.77814Z" fill="url(#paint0_linear_41_2132)"/>
<path d="M270.962 21.8075C271.114 21.8881 271.266 21.9687 271.423 22.0517C272.577 22.6863 273.605 23.4449 274.637 24.2621C274.923 24.4707 275.221 24.6496 275.526 24.829C275.771 24.3804 276.015 23.9315 276.259 23.4824C276.327 23.3578 276.395 23.2332 276.465 23.1047C276.533 22.9794 276.602 22.8541 276.672 22.725C276.733 22.6122 276.795 22.4994 276.858 22.3831C277.207 21.7153 277.538 21.0376 277.873 20.3624C282.219 20.3624 286.565 20.3624 291.043 20.3624C291.048 26.8122 291.053 33.2621 291.056 39.7119C291.056 40.475 291.057 41.2381 291.057 42.0011C291.057 42.229 291.057 42.229 291.057 42.4614C291.058 44.9145 291.06 47.3677 291.063 49.8208C291.065 52.3416 291.067 54.8625 291.067 57.3833C291.068 58.9363 291.069 60.4893 291.071 62.0423C291.072 63.1101 291.073 64.178 291.072 65.2458C291.072 65.86 291.072 66.4743 291.074 67.0885C291.09 74.5946 290.383 82.3029 285.566 88.4122C285.512 88.4818 285.457 88.5514 285.401 88.6231C283.552 90.9668 281.411 92.8842 278.88 94.4478C278.667 94.5794 278.455 94.7136 278.244 94.8478C273.168 97.9413 266.974 98.9549 261.125 98.9465C260.971 98.9464 260.971 98.9464 260.814 98.9462C252.608 98.9291 244.444 96.6331 238.415 90.8208C238.259 90.6713 238.102 90.5238 237.945 90.3766C234.724 87.2841 232.338 82.5662 231.582 78.1653C231.582 77.9486 231.582 77.7318 231.582 77.5085C237.736 77.5085 243.889 77.5085 250.229 77.5085C250.53 78.0721 250.831 78.6356 251.142 79.2163C253.258 81.7039 256.446 82.7579 259.617 83.026C262.879 83.205 266.283 82.6111 268.836 80.4094C268.935 80.3192 269.034 80.2289 269.136 80.1359C269.237 80.047 269.337 79.9581 269.44 79.8665C271.496 77.9363 272.222 75.3692 272.412 72.6396C272.424 72.4883 272.435 72.337 272.447 72.1811C272.474 71.8112 272.501 71.4413 272.527 71.0713C272.395 71.1509 272.263 71.2305 272.128 71.3125C265.604 75.1613 257.798 76.1233 250.487 74.2854C244.766 72.7723 239.504 69.5315 235.885 64.7656C235.733 64.5664 235.733 64.5664 235.578 64.3632C231.815 59.3109 230.08 53.1464 230.107 46.8828C230.108 46.7647 230.108 46.6465 230.108 46.5248C230.136 39.261 232.63 32.2889 237.651 27.0001C237.779 26.8648 237.907 26.7288 238.034 26.5923C246.319 17.7104 260.517 16.1419 270.962 21.8075ZM252.086 38.6275C249.711 41.5029 249.099 44.9566 249.316 48.607C249.405 49.4198 249.591 50.194 249.838 50.9717C249.864 51.0568 249.891 51.142 249.918 51.2297C250.829 54.0408 252.837 56.441 255.445 57.8029C258.612 59.3428 262.075 59.5473 265.396 58.4187C268.427 57.254 270.703 54.9965 272.046 52.0473C272.614 50.6328 272.989 49.0838 273.048 47.5561C273.053 47.4483 273.059 47.3406 273.064 47.2297C273.142 44.0931 272.182 40.8271 270.049 38.4915C269.953 38.3826 269.857 38.2737 269.758 38.1615C267.687 35.936 264.808 34.7959 261.813 34.6361C258.148 34.5288 254.549 35.8123 252.086 38.6275Z" fill="url(#paint1_linear_41_2132)"/>
<path d="M421.047 0.131378C427.415 0.131378 433.784 0.131378 440.345 0.131378C440.388 7.93478 440.431 15.7382 440.476 23.778C440.992 23.3879 441.509 22.9977 442.041 22.5957C442.401 22.3613 442.754 22.1365 443.124 21.9224C443.219 21.8677 443.313 21.8129 443.41 21.7565C448.656 18.752 454.966 17.7554 460.835 19.3116C465.969 20.7583 470.198 23.9649 472.841 28.6556C475.555 33.6928 476.12 39.0921 476.103 44.7329C476.103 45.0828 476.103 45.4327 476.103 45.7826C476.104 46.5288 476.103 47.275 476.101 48.0212C476.099 49.1 476.099 50.1787 476.098 51.2575C476.098 53.0087 476.096 54.76 476.093 56.5112C476.091 58.21 476.089 59.9089 476.088 61.6077C476.088 61.7139 476.088 61.8201 476.088 61.9295C476.087 62.7602 476.087 63.5909 476.086 64.4216C476.084 68.4774 476.079 72.5332 476.074 76.5889C469.705 76.5889 463.337 76.5889 456.775 76.5889C456.769 74.2455 456.762 71.9021 456.756 69.4877C456.751 68.0018 456.747 66.5158 456.742 65.0299C456.739 64.2489 456.736 63.4679 456.734 62.6869C456.734 62.5891 456.733 62.4912 456.733 62.3904C456.728 60.8147 456.723 59.239 456.719 57.6634C456.715 56.0438 456.71 54.4242 456.704 52.8046C456.701 51.8069 456.698 50.8092 456.696 49.8115C456.695 49.0438 456.692 48.276 456.688 47.5083C456.687 47.1953 456.686 46.8824 456.686 46.5694C456.695 41.3123 456.695 41.3123 454.256 36.8181C452.577 35.3923 450.541 35.1924 448.43 35.3386C446.178 35.6332 444.173 36.6038 442.693 38.3601C441.089 40.4594 440.458 43.2585 440.455 45.862C440.455 45.9937 440.454 46.1254 440.453 46.2611C440.451 46.7012 440.45 47.1413 440.449 47.5814C440.448 47.8974 440.446 48.2133 440.445 48.5293C440.442 49.2089 440.44 49.8885 440.438 50.5681C440.435 51.5507 440.431 52.5333 440.427 53.5159C440.421 55.1103 440.416 56.7047 440.41 58.299C440.405 59.8475 440.4 61.3959 440.394 62.9443C440.394 63.0408 440.393 63.1373 440.393 63.2367C440.39 64.0759 440.387 64.9152 440.383 65.7545C440.37 69.366 440.358 72.9774 440.345 76.5889C433.977 76.5889 427.608 76.5889 421.047 76.5889C421.047 51.3579 421.047 26.1269 421.047 0.131378Z" fill="url(#paint2_linear_41_2132)"/>
<path d="M528.754 23.1212C528.837 23.1803 528.921 23.2394 529.007 23.3003C529.535 23.6741 530.058 24.0526 530.579 24.4349C530.655 24.189 530.655 24.189 530.733 23.9381C530.983 23.1819 531.307 22.465 531.639 21.7418C531.698 21.6104 531.757 21.479 531.819 21.3436C532.256 20.3809 532.256 20.3809 532.405 20.231C537.181 20.231 541.958 20.231 546.879 20.231C546.879 38.7858 546.879 57.3405 546.879 76.4575C541.93 76.4575 536.982 76.4575 531.883 76.4575C531.113 74.7507 531.113 74.7507 530.799 73.9615C530.765 73.8773 530.731 73.7932 530.695 73.7065C530.546 73.3316 530.449 73.056 530.449 72.6478C530.247 72.7956 530.247 72.7956 530.042 72.9465C523.495 77.7068 516 79.2999 508.021 78.034C500.874 76.8316 494.175 72.9951 489.891 67.0363C487.048 62.95 485.25 58.2748 484.55 53.3364C484.534 53.2295 484.519 53.1226 484.503 53.0124C483.905 48.5785 484.251 43.9988 485.332 39.6739C485.356 39.5762 485.38 39.4786 485.404 39.3779C486.26 35.935 487.884 32.6311 490.026 29.8211C490.113 29.7059 490.2 29.5908 490.289 29.4721C490.978 28.5803 491.735 27.7525 492.504 26.9309C492.599 26.828 492.694 26.725 492.792 26.6189C500.914 18.1022 515.245 16.3624 528.754 23.1212ZM506.717 39.8052C504.328 42.6108 503.541 46.1634 503.718 49.7894C504.006 53.1762 505.578 56.3242 508.154 58.5233C510.823 60.6863 514.194 61.4942 517.576 61.192C520.115 60.888 522.371 59.8529 524.32 58.1971C524.483 58.0713 524.483 58.0713 524.649 57.9431C526.992 55.976 528.142 52.7564 528.493 49.7894C528.729 46.1108 527.838 42.5984 525.414 39.7688C523.666 37.803 521.493 36.6367 518.974 35.9955C518.785 35.9472 518.785 35.9472 518.592 35.898C514.238 34.9908 509.69 36.5198 506.717 39.8052Z" fill="url(#paint3_linear_41_2132)"/>
<path d="M187.868 18.6217C187.961 18.6216 188.055 18.6216 188.152 18.6215C194.398 18.6308 200.013 20.6613 204.982 24.4349C205.068 24.1748 205.154 23.9146 205.243 23.6466C205.759 22.5195 206.275 21.3923 206.807 20.231C211.584 20.231 216.36 20.231 221.281 20.231C221.281 38.7858 221.281 57.3405 221.281 76.4575C216.333 76.4575 211.384 76.4575 206.286 76.4575C204.852 72.9105 204.852 72.9105 204.852 72.6478C204.793 72.6926 204.734 72.7375 204.673 72.7837C200.987 75.577 196.908 77.439 192.334 78.1653C192.238 78.1807 192.141 78.1961 192.043 78.212C184.678 79.3274 176.503 77.5505 170.46 73.1158C168.181 71.4015 166.093 69.4642 164.429 67.1302C164.367 67.0438 164.305 66.9574 164.241 66.8684C159.197 59.7483 157.782 50.7849 159.172 42.252C160.214 36.316 162.963 31.1617 167.037 26.7995C167.117 26.713 167.198 26.6265 167.28 26.5373C172.519 21.07 180.504 18.628 187.868 18.6217ZM181.122 39.8386C178.912 42.4721 177.87 45.965 178.12 49.3952C178.408 52.2645 179.296 54.9853 181.25 57.1461C181.335 57.2408 181.335 57.2408 181.421 57.3374C182.34 58.354 183.291 59.1309 184.51 59.7735C184.627 59.8352 184.627 59.8352 184.746 59.8981C187.754 61.4479 191.151 61.6076 194.374 60.689C197.489 59.6461 200.007 57.6337 201.51 54.6665C202.002 53.6454 202.351 52.5939 202.635 51.4972C202.667 51.373 202.699 51.2489 202.732 51.121C203.447 47.6866 202.693 43.9153 200.809 40.9875C198.77 38.1201 195.937 36.4319 192.507 35.8282C188.269 35.1816 183.994 36.5899 181.122 39.8386Z" fill="url(#paint4_linear_41_2132)"/>
<path d="M345.333 23.8913C345.589 24.0768 345.589 24.0768 346.069 24.3035C346.672 22.9596 347.274 21.6157 347.895 20.231C352.671 20.231 357.448 20.231 362.369 20.231C362.369 38.7858 362.369 57.3405 362.369 76.4575C357.42 76.4575 352.472 76.4575 347.373 76.4575C346.663 74.6367 346.663 74.6367 345.939 72.7792C345.529 72.9857 345.194 73.1987 344.829 73.472C343.773 74.262 342.672 74.9269 341.506 75.5379C341.418 75.5837 341.331 75.6294 341.241 75.6765C338.765 76.9548 336.156 77.6889 333.421 78.1654C333.322 78.1828 333.222 78.2002 333.12 78.2182C329.023 78.8956 324.626 78.4306 320.642 77.3771C320.497 77.3401 320.497 77.3401 320.349 77.3023C315.653 76.0962 311.617 73.4634 308.124 70.1518C308.039 70.0708 307.953 69.9899 307.864 69.9065C303.563 65.7238 301.123 59.7084 300.17 53.8618C300.156 53.7733 300.141 53.6847 300.126 53.5935C298.859 45.5261 300.556 36.763 305.343 30.1202C305.921 29.3385 306.546 28.6017 307.201 27.8854C307.449 27.6138 307.685 27.3359 307.921 27.0541C312.342 21.9673 319.594 19.2191 326.143 18.6962C333.023 18.2611 339.763 19.6084 345.333 23.8913ZM322.859 39.2797C322.779 39.3507 322.699 39.4216 322.616 39.4948C320.372 41.5579 319.356 44.929 319.211 47.8977C319.117 51.4455 320.258 54.8878 322.685 57.4915C322.786 57.5943 322.886 57.697 322.989 57.803C323.088 57.9044 323.187 58.0058 323.289 58.1103C324.14 58.9306 325.079 59.5006 326.119 60.0362C326.242 60.0999 326.365 60.1636 326.492 60.2292C329.47 61.6194 333.049 61.5665 336.109 60.4904C339.18 59.3277 341.598 57.0186 342.972 54.0296C344.248 51.047 344.496 47.353 343.462 44.2718C343.434 44.1884 343.407 44.105 343.379 44.019C342.753 42.1439 341.72 40.5471 340.332 39.1484C340.241 39.0569 340.151 38.9655 340.057 38.8713C337.594 36.5343 334.314 35.6457 331.001 35.6968C327.848 35.8117 325.124 37.1004 322.859 39.2797Z" fill="url(#paint5_linear_41_2132)"/>
<path d="M393.664 3.9411C395.041 3.9411 396.418 3.9411 397.836 3.9411C397.836 9.36013 397.836 14.7792 397.836 20.3624C402.441 20.3624 407.045 20.3624 411.789 20.3624C411.789 25.3045 411.789 30.2467 411.789 35.3386C407.357 35.3386 402.925 35.3386 398.358 35.3386C398.37 38.6592 398.37 38.6592 398.385 41.9797C398.392 43.3347 398.399 44.6897 398.403 46.0447C398.406 47.0318 398.411 48.0188 398.417 49.0059C398.42 49.5279 398.422 50.0499 398.423 50.572C398.424 51.0646 398.426 51.5573 398.43 52.0499C398.432 52.3143 398.432 52.5786 398.432 52.8429C398.451 54.7203 398.795 56.4361 400.084 57.8522C401.609 59.2663 403.671 59.4585 405.647 59.4594C405.815 59.4615 405.982 59.4635 406.154 59.4657C406.769 59.4725 407.384 59.475 407.999 59.4779C409.379 59.4887 410.759 59.4996 412.18 59.5108C412.18 65.1465 412.18 70.7823 412.18 76.5889C408.501 76.6011 408.501 76.6011 404.747 76.6135C403.979 76.6171 403.211 76.6207 402.42 76.6244C401.466 76.6262 401.466 76.6262 401.016 76.6265C400.709 76.6271 400.401 76.6285 400.094 76.6305C394.176 76.6676 388.568 75.5226 384.226 71.2191C380.318 67.201 379.005 61.6761 379.03 56.2031C379.03 55.9737 379.03 55.7443 379.03 55.5149C379.03 54.8997 379.031 54.2845 379.033 53.6694C379.035 53.0236 379.035 52.3779 379.035 51.7322C379.036 50.5128 379.038 49.2934 379.041 48.074C379.044 46.4239 379.046 44.7737 379.047 43.1236C379.05 40.5286 379.055 37.9336 379.06 35.3386C375.66 35.3386 372.261 35.3386 368.758 35.3386C368.758 30.6093 368.758 30.6093 369.614 29.4598C370.121 29.0785 370.121 29.0785 370.367 28.919C370.657 28.7198 370.863 28.4794 371.081 28.2036C371.49 27.7173 371.935 27.2755 372.385 26.8283C372.644 26.5638 372.887 26.2932 373.127 26.0113C373.551 25.513 374.008 25.0557 374.471 24.595C374.73 24.3305 374.973 24.0599 375.213 23.778C375.637 23.2797 376.094 22.8224 376.558 22.3617C376.816 22.0972 377.059 21.8266 377.299 21.5447C377.723 21.0464 378.18 20.5891 378.644 20.1284C378.903 19.8639 379.146 19.5933 379.386 19.3114C379.81 18.8131 380.267 18.3559 380.73 17.8951C380.989 17.6306 381.232 17.36 381.472 17.0781C381.896 16.5798 382.353 16.1226 382.817 15.6618C383.075 15.3973 383.318 15.1267 383.558 14.8448C383.982 14.3465 384.439 13.8893 384.903 13.4285C385.162 13.164 385.405 12.8934 385.645 12.6115C386.069 12.1132 386.526 11.656 386.989 11.1952C387.248 10.9308 387.491 10.6601 387.731 10.3782C388.155 9.87988 388.612 9.42267 389.076 8.96191C389.334 8.69746 389.577 8.42681 389.817 8.14495C390.241 7.64659 390.698 7.18937 391.162 6.72862C391.499 6.3846 391.809 6.02303 392.12 5.6561C392.494 5.23544 392.895 4.84444 393.296 4.45119C393.542 4.21993 393.542 4.21993 393.664 3.9411Z" fill="url(#paint6_linear_41_2132)"/>
<path d="M558.223 58.4598C564.377 58.4598 570.53 58.4598 576.87 58.4598C576.87 64.4424 576.87 70.425 576.87 76.5889C570.716 76.5889 564.563 76.5889 558.223 76.5889C558.223 70.6063 558.223 64.6237 558.223 58.4598Z" fill="url(#paint7_linear_41_2132)"/>
<path d="M104.402 94.4676C106.501 96.2688 107.689 98.7023 107.943 101.451C108.08 104.261 107.233 106.829 105.399 108.973C103.458 111.091 101.022 112.06 98.2244 112.36C95.5423 112.461 93.0592 111.372 91.0531 109.654C88.9789 107.693 87.9405 105.069 87.8457 102.231C87.9094 99.1894 89.1582 96.7248 91.2676 94.5954C94.9597 91.1303 100.608 91.4549 104.402 94.4676Z" fill="url(#paint8_linear_41_2132)"/>
<path d="M65.6662 50.423C65.7842 50.4213 65.9023 50.4196 66.0239 50.4178C66.2142 50.4164 66.2142 50.4164 66.4083 50.4149C66.5402 50.4138 66.6721 50.4128 66.808 50.4117C67.0874 50.4099 67.3668 50.4085 67.6462 50.4074C67.93 50.4059 68.2139 50.4032 68.4978 50.3993C68.9097 50.3937 69.3215 50.3916 69.7334 50.3903C69.8584 50.388 69.9834 50.3857 70.1122 50.3833C71.4861 50.3877 72.7531 50.8595 73.8037 51.7599C74.7115 52.7197 75.3749 53.9071 75.3915 55.2536C75.394 55.4319 75.394 55.4319 75.3966 55.6139C75.3975 55.7417 75.3985 55.8695 75.3995 56.0012C75.4005 56.1341 75.4016 56.267 75.4027 56.4039C75.4045 56.6854 75.4059 56.9668 75.4069 57.2483C75.4084 57.5343 75.4111 57.8203 75.4149 58.1063C75.4205 58.5213 75.4226 58.9362 75.4239 59.3512C75.4262 59.4771 75.4285 59.6031 75.4309 59.7328C75.426 61.2943 74.855 62.4874 73.7991 63.6002C72.5945 64.7624 71.3091 65.0472 69.6906 65.055C69.51 65.0561 69.51 65.0561 69.3257 65.0573C69.0711 65.0585 68.8165 65.0594 68.5618 65.0599C68.1758 65.0611 67.7899 65.0652 67.4039 65.0694C67.1555 65.0702 66.9072 65.0709 66.6589 65.0714C66.4881 65.0739 66.4881 65.0739 66.3139 65.0763C64.8444 65.0711 63.5266 64.576 62.4292 63.5827C61.219 62.304 60.8783 60.9228 60.8635 59.2065C60.8624 59.0891 60.8613 58.9718 60.8603 58.851C60.8585 58.6031 60.8571 58.3552 60.856 58.1073C60.8545 57.8568 60.8519 57.6062 60.848 57.3557C60.8188 55.457 60.8134 53.6146 62.1985 52.154C63.1699 51.1513 64.242 50.4408 65.6662 50.423Z" fill="url(#paint9_linear_41_2132)"/>
<path d="M37.7619 50.423C37.88 50.4213 37.998 50.4196 38.1196 50.4178C38.3099 50.4164 38.3099 50.4164 38.504 50.4149C38.6359 50.4138 38.7678 50.4128 38.9037 50.4117C39.1831 50.4099 39.4625 50.4085 39.7419 50.4074C40.0258 50.4059 40.3096 50.4032 40.5935 50.3993C41.0054 50.3937 41.4172 50.3916 41.8291 50.3903C41.9541 50.388 42.0792 50.3857 42.208 50.3833C43.5818 50.3877 44.8488 50.8595 45.8994 51.7599C46.8072 52.7197 47.4706 53.9071 47.4872 55.2536C47.4897 55.4319 47.4897 55.4319 47.4923 55.6139C47.4933 55.7417 47.4942 55.8695 47.4952 56.0012C47.4963 56.1341 47.4973 56.267 47.4984 56.4039C47.5002 56.6854 47.5016 56.9668 47.5026 57.2483C47.5041 57.5343 47.5068 57.8203 47.5107 58.1063C47.5163 58.5213 47.5183 58.9362 47.5197 59.3512C47.5219 59.4771 47.5242 59.6031 47.5266 59.7328C47.5217 61.2943 46.9507 62.4874 45.8948 63.6002C44.6902 64.7624 43.4048 65.0472 41.7863 65.055C41.6057 65.0561 41.6057 65.0561 41.4214 65.0573C41.1668 65.0585 40.9122 65.0594 40.6576 65.0599C40.2715 65.0611 39.8856 65.0652 39.4996 65.0694C39.2513 65.0702 39.003 65.0709 38.7546 65.0714C38.5838 65.0739 38.5838 65.0739 38.4096 65.0763C36.9444 65.0711 35.6001 64.5817 34.5204 63.5689C33.3171 62.2669 32.9511 60.9192 32.9464 59.168C32.9456 59.0512 32.9447 58.9345 32.9438 58.8142C32.9425 58.5687 32.9419 58.3231 32.9419 58.0776C32.9413 57.7072 32.9366 57.3369 32.9317 56.9665C32.9192 54.9646 33.1241 53.3618 34.5642 51.8754C35.4738 51.0053 36.4895 50.4389 37.7619 50.423Z" fill="url(#paint10_linear_41_2132)"/>
<path d="M238.775 103.692C239.595 104.449 240.14 105.187 240.449 106.279C240.449 106.409 240.449 106.539 240.449 106.673C239.958 106.692 239.466 106.703 238.974 106.714C238.835 106.719 238.695 106.725 238.551 106.73C238.417 106.733 238.283 106.735 238.145 106.737C238.021 106.74 237.897 106.744 237.77 106.747C237.45 106.673 237.45 106.673 237.225 106.351C237.143 106.185 237.143 106.185 237.059 106.016C236.351 105.464 235.595 105.271 234.712 105.359C233.946 105.594 233.597 105.902 233.147 106.541C232.886 107.332 232.856 108.328 233.14 109.115C233.442 109.627 233.76 110.001 234.321 110.22C235.156 110.428 235.901 110.366 236.668 109.957C236.84 109.784 237.012 109.61 237.19 109.431C236.458 109.388 235.727 109.345 234.973 109.3C234.973 108.693 234.973 108.086 234.973 107.461C236.823 107.461 238.673 107.461 240.58 107.461C240.401 109.438 240.026 110.74 238.575 112.1C237.265 113.172 235.676 113.243 234.06 113.11C232.696 112.826 231.551 112.063 230.735 110.934C229.936 109.629 229.707 108.198 229.947 106.689C230.295 105.239 231.032 104.128 232.235 103.257C234.226 102.055 236.973 102.205 238.775 103.692Z" fill="url(#paint11_linear_41_2132)"/>
<path d="M531.288 105.072C531.639 105.271 531.955 105.506 532.274 105.753C532.354 105.698 532.435 105.642 532.517 105.585C532.623 105.513 532.728 105.441 532.837 105.367C532.993 105.26 532.993 105.26 533.153 105.15C533.817 104.733 534.515 104.759 535.273 104.834C536.038 105.06 536.523 105.48 536.968 106.147C537.34 106.971 537.413 107.638 537.398 108.537C537.397 108.66 537.397 108.784 537.396 108.912C537.394 109.304 537.389 109.696 537.384 110.088C537.382 110.356 537.38 110.623 537.379 110.89C537.375 111.543 537.367 112.195 537.36 112.847C536.456 112.847 535.552 112.847 534.621 112.847C534.613 112.493 534.606 112.139 534.597 111.774C534.589 111.43 534.581 111.087 534.573 110.743C534.567 110.505 534.562 110.266 534.556 110.028C534.549 109.684 534.541 109.341 534.532 108.998C534.53 108.892 534.528 108.785 534.526 108.676C534.513 108.207 534.485 107.781 534.361 107.33C533.744 107.27 533.744 107.27 533.203 107.51C532.861 108.009 532.897 108.488 532.885 109.075C532.882 109.183 532.88 109.29 532.877 109.401C532.868 109.745 532.861 110.089 532.853 110.433C532.847 110.666 532.842 110.899 532.836 111.132C532.822 111.704 532.809 112.275 532.796 112.847C531.892 112.847 530.989 112.847 530.057 112.847C530.05 112.299 530.05 112.299 530.043 111.74C530.037 111.387 530.03 111.033 530.023 110.68C530.019 110.434 530.015 110.188 530.012 109.942C530.008 109.589 530.001 109.236 529.994 108.883C529.993 108.773 529.992 108.663 529.991 108.549C529.992 107.985 529.992 107.985 529.753 107.493C529.528 107.287 529.528 107.287 529.137 107.354C528.741 107.43 528.741 107.43 528.493 107.724C528.306 108.229 528.333 108.774 528.321 109.306C528.318 109.408 528.316 109.509 528.313 109.613C528.304 109.936 528.297 110.258 528.289 110.581C528.283 110.8 528.278 111.019 528.272 111.238C528.258 111.775 528.245 112.311 528.232 112.847C527.328 112.847 526.425 112.847 525.494 112.847C525.494 110.289 525.494 107.732 525.494 105.096C526.139 105.096 526.785 105.096 527.45 105.096C527.536 105.313 527.622 105.53 527.71 105.753C527.848 105.65 527.985 105.547 528.126 105.441C529.061 104.739 530.216 104.544 531.288 105.072Z" fill="url(#paint12_linear_41_2132)"/>
<path d="M422.872 105.359C423.001 105.402 423.131 105.446 423.264 105.49C423.35 105.36 423.436 105.23 423.524 105.096C423.867 105.067 424.177 105.059 424.519 105.072C424.611 105.073 424.703 105.075 424.798 105.077C425.025 105.082 425.253 105.089 425.48 105.096C425.487 106.122 425.491 107.148 425.495 108.174C425.496 108.523 425.498 108.872 425.5 109.221C425.503 109.723 425.505 110.226 425.506 110.728C425.507 110.883 425.508 111.038 425.51 111.197C425.51 112.628 425.354 113.832 424.359 114.913C423.354 115.852 422.135 116.044 420.803 116.028C419.523 115.941 418.638 115.413 417.746 114.514C417.541 114.185 417.434 113.914 417.317 113.548C417.282 113.441 417.248 113.334 417.213 113.225C417.187 113.143 417.161 113.062 417.135 112.978C417.578 112.963 418.02 112.954 418.463 112.946C418.588 112.941 418.714 112.937 418.843 112.932C419.783 112.919 419.783 112.919 420.263 113.236C420.35 113.324 420.436 113.413 420.525 113.504C421.127 113.684 421.519 113.628 422.09 113.373C422.412 113.138 422.471 113.018 422.571 112.625C422.584 112.525 422.598 112.425 422.612 112.322C422.469 112.387 422.326 112.452 422.18 112.519C421.102 112.918 420.073 112.789 419.026 112.353C418.09 111.885 417.589 111.238 417.149 110.284C416.827 109.262 416.814 108.072 417.208 107.067C417.793 105.986 418.552 105.257 419.723 104.889C420.876 104.661 421.852 104.805 422.872 105.359ZM419.832 107.954C419.626 108.633 419.653 109.126 419.971 109.743C420.392 110.238 420.591 110.333 421.234 110.392C421.845 110.338 422.158 110.158 422.579 109.719C422.865 109.215 422.906 108.807 422.791 108.241C422.566 107.757 422.396 107.509 421.96 107.198C421.03 107.021 420.412 107.175 419.832 107.954Z" fill="url(#paint13_linear_41_2132)"/>
<path d="M438.781 102.732C439.727 102.732 440.674 102.732 441.649 102.732C441.649 103.945 441.649 105.159 441.649 106.41C442.596 106.41 443.543 106.41 444.518 106.41C444.518 105.196 444.518 103.982 444.518 102.732C445.465 102.732 446.412 102.732 447.387 102.732C447.387 106.07 447.387 109.408 447.387 112.847C446.44 112.847 445.494 112.847 444.518 112.847C444.518 111.59 444.518 110.333 444.518 109.037C443.571 109.037 442.625 109.037 441.649 109.037C441.649 110.295 441.649 111.552 441.649 112.847C440.703 112.847 439.756 112.847 438.781 112.847C438.781 109.509 438.781 106.171 438.781 102.732Z" fill="url(#paint14_linear_41_2132)"/>
<path d="M483.376 102.206C484.28 102.206 485.184 102.206 486.115 102.206C486.115 105.761 486.115 109.316 486.115 112.978C485.426 112.978 484.738 112.978 484.028 112.978C483.985 112.805 483.942 112.632 483.898 112.453C483.827 112.489 483.756 112.526 483.683 112.563C483.543 112.635 483.543 112.635 483.401 112.708C483.262 112.778 483.262 112.778 483.121 112.851C482.23 113.278 481.066 113.245 480.116 113.015C479.054 112.611 478.361 111.985 477.804 110.991C477.257 109.741 477.28 108.427 477.75 107.161C478.013 106.584 478.335 106.175 478.812 105.753C478.912 105.661 479.011 105.569 479.114 105.474C480.147 104.748 481.231 104.699 482.463 104.834C482.765 104.964 483.066 105.094 483.376 105.228C483.376 104.231 483.376 103.233 483.376 102.206ZM480.638 107.724C480.265 108.35 480.18 108.83 480.295 109.552C480.431 110.006 480.652 110.21 481.029 110.482C481.523 110.691 481.821 110.767 482.349 110.671C482.789 110.45 483.058 110.201 483.376 109.826C483.582 109.204 483.575 108.702 483.352 108.085C483.078 107.666 482.927 107.512 482.463 107.33C481.778 107.239 481.171 107.234 480.638 107.724Z" fill="url(#paint15_linear_41_2132)"/>
<path d="M175.252 102.206C176.155 102.206 177.059 102.206 177.99 102.206C177.99 105.761 177.99 109.316 177.99 112.978C177.302 112.978 176.613 112.978 175.904 112.978C175.861 112.805 175.818 112.632 175.773 112.453C175.703 112.489 175.632 112.526 175.559 112.563C175.419 112.635 175.419 112.635 175.276 112.708C175.138 112.778 175.138 112.778 174.997 112.851C174.105 113.278 172.942 113.245 171.992 113.015C170.929 112.611 170.236 111.985 169.679 110.991C169.132 109.741 169.155 108.427 169.626 107.161C169.888 106.584 170.211 106.175 170.688 105.753C170.787 105.661 170.887 105.569 170.989 105.474C172.022 104.748 173.107 104.699 174.339 104.834C174.64 104.964 174.941 105.094 175.252 105.228C175.252 104.231 175.252 103.233 175.252 102.206ZM172.513 107.724C172.141 108.35 172.055 108.83 172.17 109.552C172.307 110.006 172.527 110.21 172.905 110.482C173.399 110.691 173.696 110.767 174.225 110.671C174.664 110.45 174.934 110.201 175.252 109.826C175.457 109.204 175.451 108.702 175.227 108.085C174.953 107.666 174.802 107.512 174.339 107.33C173.654 107.239 173.046 107.234 172.513 107.724Z" fill="url(#paint16_linear_41_2132)"/>
<path d="M457.818 102.206C458.722 102.206 459.626 102.206 460.557 102.206C460.557 103.203 460.557 104.2 460.557 105.228C461.073 105.033 461.073 105.033 461.6 104.834C462.815 104.671 463.89 104.848 464.893 105.571C465.657 106.21 466.157 106.882 466.424 107.855C466.455 108.223 466.474 108.571 466.473 108.939C466.473 109.037 466.473 109.136 466.473 109.237C466.449 110.313 466.165 111.291 465.381 112.059C464.128 113.022 463.045 113.252 461.469 113.11C461.043 112.982 460.677 112.813 460.296 112.584C460.21 112.541 460.124 112.498 460.035 112.453C459.992 112.583 459.949 112.713 459.905 112.847C459.216 112.847 458.528 112.847 457.818 112.847C457.818 109.336 457.818 105.824 457.818 102.206ZM460.581 108.003C460.364 108.533 460.335 108.997 460.426 109.563C460.688 110.062 460.873 110.301 461.339 110.614C461.924 110.691 462.471 110.677 463.026 110.474C463.455 110.068 463.665 109.632 463.703 109.034C463.657 108.323 463.398 107.959 462.904 107.461C462.071 107.041 461.159 107.32 460.581 108.003Z" fill="url(#paint17_linear_41_2132)"/>
<path d="M255.314 102.206C256.218 102.206 257.122 102.206 258.053 102.206C258.053 103.203 258.053 104.2 258.053 105.228C258.569 105.033 258.569 105.033 259.096 104.834C260.311 104.671 261.386 104.848 262.389 105.571C263.153 106.21 263.653 106.882 263.921 107.855C263.952 108.223 263.97 108.571 263.969 108.939C263.969 109.037 263.969 109.136 263.969 109.237C263.945 110.313 263.661 111.291 262.877 112.059C261.624 113.022 260.541 113.252 258.966 113.11C258.54 112.982 258.173 112.813 257.792 112.584C257.706 112.541 257.62 112.498 257.531 112.453C257.488 112.583 257.445 112.713 257.401 112.847C256.712 112.847 256.024 112.847 255.314 112.847C255.314 109.336 255.314 105.824 255.314 102.206ZM258.077 108.003C257.86 108.533 257.831 108.997 257.922 109.563C258.184 110.062 258.369 110.301 258.835 110.614C259.42 110.691 259.967 110.677 260.522 110.474C260.951 110.068 261.161 109.632 261.2 109.034C261.154 108.323 260.894 107.959 260.4 107.461C259.567 107.041 258.655 107.32 258.077 108.003Z" fill="url(#paint18_linear_41_2132)"/>
<path d="M195.953 105.186C197.028 105.821 197.64 106.644 198.02 107.841C198.265 109.162 198.095 110.376 197.419 111.533C196.81 112.357 196.024 112.79 195.072 113.11C194.728 113.126 194.389 113.134 194.045 113.134C193.953 113.136 193.86 113.138 193.765 113.139C193.191 113.141 192.885 113.069 192.334 112.847C192.291 113.801 192.247 114.755 192.203 115.737C191.3 115.737 190.396 115.737 189.465 115.737C189.465 112.226 189.465 108.714 189.465 105.096C190.11 105.096 190.756 105.096 191.421 105.096C191.55 105.226 191.679 105.356 191.812 105.49C191.882 105.431 191.952 105.371 192.024 105.31C193.139 104.541 194.765 104.622 195.953 105.186ZM192.334 107.855C192.047 108.287 191.982 108.524 191.942 109.037C192.077 109.703 192.359 110.034 192.855 110.482C192.898 110.526 192.941 110.569 192.986 110.614C193.608 110.696 194.222 110.741 194.746 110.351C195.136 109.88 195.296 109.516 195.333 108.906C195.215 108.236 194.915 107.909 194.42 107.461C194.377 107.418 194.334 107.374 194.289 107.33C193.491 107.239 192.905 107.225 192.334 107.855Z" fill="url(#paint19_linear_41_2132)"/>
<path d="M493.416 102.732C494.363 102.732 495.31 102.732 496.285 102.732C497.144 104.806 497.991 106.885 498.819 108.972C498.877 109.116 498.877 109.116 498.935 109.262C499.408 110.454 499.872 111.648 500.327 112.847C499.251 112.847 498.176 112.847 497.067 112.847C496.895 112.37 496.723 111.893 496.546 111.402C494.868 111.337 494.868 111.337 493.155 111.271C493.026 111.748 492.897 112.224 492.764 112.716C492.634 112.847 492.634 112.847 492.344 112.862C492.156 112.861 492.156 112.861 491.965 112.86C491.763 112.859 491.763 112.859 491.556 112.859C491.414 112.858 491.272 112.856 491.126 112.855C490.912 112.854 490.912 112.854 490.694 112.854C490.341 112.852 489.988 112.85 489.635 112.847C489.714 112.4 489.825 111.995 489.989 111.573C490.035 111.454 490.08 111.335 490.128 111.212C490.177 111.084 490.227 110.956 490.279 110.824C490.331 110.689 490.383 110.555 490.436 110.416C490.603 109.983 490.771 109.551 490.939 109.119C491.048 108.838 491.156 108.556 491.265 108.275C491.59 107.434 491.916 106.593 492.243 105.753C492.299 105.607 492.356 105.461 492.414 105.311C492.748 104.451 493.082 103.591 493.416 102.732ZM494.851 106.279C494.449 107.191 494.117 108.054 493.938 109.037C494.583 109.037 495.229 109.037 495.894 109.037C495.593 108.127 495.291 107.217 494.981 106.279C494.938 106.279 494.895 106.279 494.851 106.279Z" fill="url(#paint20_linear_41_2132)"/>
<path d="M285.045 102.732C285.991 102.732 286.938 102.732 287.913 102.732C288.772 104.806 289.62 106.885 290.448 108.972C290.505 109.116 290.505 109.116 290.563 109.262C291.036 110.454 291.501 111.648 291.956 112.847C290.88 112.847 289.804 112.847 288.696 112.847C288.524 112.37 288.351 111.893 288.174 111.402C286.496 111.337 286.496 111.337 284.784 111.271C284.655 111.748 284.526 112.224 284.393 112.716C284.262 112.847 284.262 112.847 283.972 112.862C283.785 112.861 283.785 112.861 283.593 112.86C283.391 112.859 283.391 112.859 283.185 112.859C283.043 112.858 282.901 112.856 282.755 112.855C282.541 112.854 282.541 112.854 282.323 112.854C281.97 112.852 281.616 112.85 281.263 112.847C281.342 112.4 281.454 111.995 281.617 111.573C281.663 111.454 281.709 111.335 281.756 111.212C281.806 111.084 281.856 110.956 281.907 110.824C281.959 110.689 282.011 110.555 282.065 110.416C282.232 109.983 282.399 109.551 282.567 109.119C282.676 108.838 282.785 108.556 282.894 108.275C283.219 107.434 283.545 106.593 283.871 105.753C283.928 105.607 283.984 105.461 284.043 105.311C284.377 104.451 284.711 103.591 285.045 102.732ZM286.479 106.279C286.078 107.191 285.745 108.054 285.566 109.037C286.212 109.037 286.857 109.037 287.522 109.037C287.221 108.127 286.92 107.217 286.609 106.279C286.566 106.279 286.523 106.279 286.479 106.279Z" fill="url(#paint21_linear_41_2132)"/>
<path d="M162.473 102.732C163.42 102.732 164.366 102.732 165.342 102.732C166.2 104.806 167.048 106.885 167.876 108.972C167.933 109.116 167.933 109.116 167.992 109.262C168.465 110.454 168.929 111.648 169.384 112.847C168.308 112.847 167.232 112.847 166.124 112.847C165.952 112.37 165.78 111.893 165.602 111.402C163.924 111.337 163.924 111.337 162.212 111.271C162.083 111.748 161.954 112.224 161.821 112.716C161.691 112.847 161.691 112.847 161.4 112.862C161.213 112.861 161.213 112.861 161.022 112.86C160.819 112.859 160.819 112.859 160.613 112.859C160.471 112.858 160.329 112.856 160.183 112.855C159.969 112.854 159.969 112.854 159.751 112.854C159.398 112.852 159.045 112.85 158.691 112.847C158.77 112.4 158.882 111.995 159.045 111.573C159.091 111.454 159.137 111.335 159.184 111.212C159.234 111.084 159.284 110.956 159.335 110.824C159.387 110.689 159.439 110.555 159.493 110.416C159.66 109.983 159.828 109.551 159.995 109.119C160.104 108.838 160.213 108.556 160.322 108.275C160.647 107.434 160.973 106.593 161.299 105.753C161.356 105.607 161.413 105.461 161.471 105.311C161.805 104.451 162.139 103.591 162.473 102.732ZM163.907 106.279C163.506 107.191 163.173 108.054 162.994 109.037C163.64 109.037 164.285 109.037 164.95 109.037C164.649 108.127 164.348 107.217 164.038 106.279C163.995 106.279 163.952 106.279 163.907 106.279Z" fill="url(#paint22_linear_41_2132)"/>
<path d="M544.411 105.244C544.655 105.377 544.655 105.377 544.923 105.359C544.966 105.272 545.009 105.186 545.053 105.096C545.784 105.096 546.516 105.096 547.27 105.096C547.27 107.654 547.27 110.212 547.27 112.847C546.538 112.847 545.807 112.847 545.053 112.847C545.01 112.717 544.967 112.587 544.923 112.453C544.852 112.489 544.781 112.526 544.708 112.563C544.568 112.635 544.568 112.635 544.425 112.708C544.287 112.778 544.287 112.778 544.146 112.851C543.254 113.278 542.085 113.248 541.137 113.011C540.007 112.573 539.394 111.92 538.794 110.877C538.269 109.668 538.338 108.398 538.765 107.168C539.241 106.1 540.064 105.381 541.141 104.965C542.24 104.618 543.386 104.757 544.411 105.244ZM541.663 107.724C541.289 108.351 541.208 108.829 541.317 109.552C541.451 109.984 541.707 110.209 542.054 110.482C542.504 110.709 542.995 110.66 543.488 110.614C543.952 110.431 544.103 110.277 544.377 109.858C544.613 109.207 544.613 108.736 544.377 108.085C544.103 107.666 543.952 107.512 543.488 107.33C542.803 107.239 542.195 107.234 541.663 107.724Z" fill="url(#paint23_linear_41_2132)"/>
<path d="M338.776 105.244C339.021 105.377 339.021 105.377 339.288 105.359C339.331 105.272 339.374 105.186 339.419 105.096C340.15 105.096 340.882 105.096 341.635 105.096C341.635 107.654 341.635 110.212 341.635 112.847C340.904 112.847 340.172 112.847 339.419 112.847C339.376 112.717 339.333 112.587 339.288 112.453C339.218 112.489 339.147 112.526 339.074 112.563C338.934 112.635 338.934 112.635 338.791 112.708C338.653 112.778 338.653 112.778 338.512 112.851C337.62 113.278 336.451 113.248 335.502 113.011C334.372 112.573 333.759 111.92 333.16 110.877C332.635 109.668 332.704 108.398 333.131 107.168C333.607 106.1 334.43 105.381 335.507 104.965C336.606 104.618 337.751 104.757 338.776 105.244ZM336.028 107.724C335.655 108.351 335.574 108.829 335.683 109.552C335.817 109.984 336.072 110.209 336.42 110.482C336.87 110.709 337.36 110.66 337.854 110.614C338.317 110.431 338.468 110.277 338.742 109.858C338.978 109.207 338.978 108.736 338.742 108.085C338.468 107.666 338.317 107.512 337.854 107.33C337.169 107.239 336.561 107.234 336.028 107.724Z" fill="url(#paint24_linear_41_2132)"/>
<path d="M270.58 105.244C270.824 105.377 270.824 105.377 271.092 105.359C271.135 105.272 271.178 105.186 271.222 105.096C271.953 105.096 272.685 105.096 273.439 105.096C273.439 107.654 273.439 110.212 273.439 112.847C272.707 112.847 271.976 112.847 271.222 112.847C271.179 112.717 271.136 112.587 271.092 112.453C271.021 112.489 270.95 112.526 270.877 112.563C270.737 112.635 270.737 112.635 270.594 112.708C270.456 112.778 270.456 112.778 270.315 112.851C269.423 113.278 268.254 113.248 267.305 113.011C266.175 112.573 265.563 111.92 264.963 110.877C264.438 109.668 264.507 108.398 264.934 107.168C265.41 106.1 266.233 105.381 267.31 104.965C268.409 104.618 269.555 104.757 270.58 105.244ZM267.832 107.724C267.458 108.351 267.377 108.829 267.486 109.552C267.62 109.984 267.875 110.209 268.223 110.482C268.673 110.709 269.164 110.66 269.657 110.614C270.121 110.431 270.272 110.277 270.545 109.858C270.782 109.207 270.782 108.736 270.545 108.085C270.272 107.666 270.121 107.512 269.657 107.33C268.972 107.239 268.364 107.234 267.832 107.724Z" fill="url(#paint25_linear_41_2132)"/>
<path d="M185.041 105.244C185.286 105.377 185.286 105.377 185.553 105.359C185.596 105.272 185.639 105.186 185.683 105.096C186.415 105.096 187.146 105.096 187.9 105.096C187.9 107.654 187.9 110.212 187.9 112.847C187.169 112.847 186.437 112.847 185.683 112.847C185.64 112.717 185.597 112.587 185.553 112.453C185.482 112.489 185.411 112.526 185.338 112.563C185.199 112.635 185.199 112.635 185.056 112.708C184.917 112.778 184.917 112.778 184.776 112.851C183.885 113.278 182.715 113.248 181.767 113.011C180.637 112.573 180.024 111.92 179.424 110.877C178.899 109.668 178.968 108.398 179.396 107.168C179.872 106.1 180.694 105.381 181.771 104.965C182.871 104.618 184.016 104.757 185.041 105.244ZM182.293 107.724C181.92 108.351 181.838 108.829 181.947 109.552C182.081 109.984 182.337 110.209 182.684 110.482C183.135 110.709 183.625 110.66 184.119 110.614C184.582 110.431 184.733 110.277 185.007 109.858C185.243 109.207 185.243 108.736 185.007 108.085C184.733 107.666 184.582 107.512 184.119 107.33C183.433 107.239 182.826 107.234 182.293 107.724Z" fill="url(#paint26_linear_41_2132)"/>
<path d="M375.93 102.206C376.834 102.206 377.737 102.206 378.668 102.206C378.712 103.247 378.755 104.287 378.799 105.359C379.014 105.229 379.229 105.099 379.451 104.965C380.241 104.697 381.207 104.692 381.969 105.039C382.866 105.567 383.349 106.329 383.624 107.33C383.672 107.767 383.669 108.199 383.662 108.639C383.661 108.76 383.661 108.881 383.66 109.006C383.658 109.389 383.653 109.771 383.648 110.154C383.646 110.415 383.644 110.676 383.643 110.937C383.639 111.574 383.631 112.21 383.624 112.847C382.72 112.847 381.816 112.847 380.885 112.847C380.879 112.513 380.872 112.18 380.866 111.836C380.859 111.511 380.851 111.187 380.844 110.863C380.839 110.638 380.834 110.413 380.83 110.188C380.824 109.864 380.817 109.54 380.809 109.216C380.807 109.116 380.806 109.016 380.804 108.913C380.79 108.379 380.757 107.931 380.494 107.461C380.035 107.296 379.805 107.291 379.353 107.477C379.002 107.773 378.933 107.941 378.799 108.381C378.769 108.732 378.75 109.07 378.745 109.422C378.742 109.52 378.74 109.618 378.737 109.719C378.729 110.031 378.723 110.343 378.717 110.655C378.712 110.867 378.707 111.079 378.702 111.291C378.689 111.81 378.679 112.329 378.668 112.847C377.765 112.847 376.861 112.847 375.93 112.847C375.93 109.336 375.93 105.824 375.93 102.206Z" fill="url(#paint27_linear_41_2132)"/>
<path d="M566.289 105.634C566.988 106.142 567.601 107.125 567.742 107.986C567.844 109.413 567.764 110.612 566.862 111.772C566.072 112.622 565.139 113.051 563.987 113.154C562.431 113.169 561.21 112.975 560.041 111.84C559.256 110.89 558.944 109.775 559.03 108.558C559.19 107.357 559.73 106.27 560.698 105.523C562.488 104.405 564.525 104.589 566.289 105.634ZM562.265 107.724C561.911 108.236 561.803 108.692 561.828 109.305C561.923 109.835 562.212 110.205 562.624 110.532C563.227 110.7 563.753 110.697 564.327 110.466C564.823 110.038 564.984 109.619 565.052 108.972C564.997 108.454 564.904 108.154 564.612 107.724C563.796 107.175 563.082 107.175 562.265 107.724Z" fill="url(#paint28_linear_41_2132)"/>
<path d="M522.867 105.634C523.566 106.142 524.179 107.125 524.32 107.986C524.422 109.413 524.342 110.612 523.44 111.772C522.65 112.622 521.718 113.051 520.565 113.154C519.009 113.169 517.788 112.975 516.62 111.84C515.834 110.89 515.523 109.775 515.608 108.558C515.768 107.357 516.308 106.27 517.277 105.523C519.066 104.405 521.103 104.589 522.867 105.634ZM518.843 107.724C518.489 108.236 518.381 108.692 518.406 109.305C518.501 109.835 518.79 110.205 519.202 110.532C519.805 110.7 520.332 110.697 520.905 110.466C521.401 110.038 521.562 109.619 521.631 108.972C521.576 108.454 521.482 108.154 521.191 107.724C520.374 107.175 519.66 107.175 518.843 107.724Z" fill="url(#paint29_linear_41_2132)"/>
<path d="M414.77 105.634C415.468 106.142 416.082 107.125 416.222 107.986C416.324 109.413 416.245 110.612 415.342 111.772C414.552 112.622 413.62 113.051 412.467 113.154C410.911 113.169 409.69 112.975 408.522 111.84C407.736 110.89 407.425 109.775 407.51 108.558C407.671 107.357 408.211 106.27 409.179 105.523C410.968 104.405 413.006 104.589 414.77 105.634ZM410.746 107.724C410.391 108.236 410.284 108.692 410.308 109.305C410.403 109.835 410.692 110.205 411.104 110.532C411.707 110.7 412.234 110.697 412.808 110.466C413.303 110.038 413.464 109.619 413.533 108.972C413.478 108.454 413.384 108.154 413.093 107.724C412.276 107.175 411.562 107.175 410.746 107.724Z" fill="url(#paint30_linear_41_2132)"/>
<path d="M401.078 105.634C401.777 106.142 402.39 107.125 402.531 107.986C402.633 109.413 402.553 110.612 401.651 111.772C400.861 112.622 399.929 113.051 398.776 113.154C397.22 113.169 395.999 112.975 394.83 111.84C394.045 110.89 393.733 109.775 393.819 108.558C393.979 107.357 394.519 106.27 395.488 105.523C397.277 104.405 399.314 104.589 401.078 105.634ZM397.054 107.724C396.7 108.236 396.592 108.692 396.617 109.305C396.712 109.835 397.001 110.205 397.413 110.532C398.016 110.7 398.543 110.697 399.116 110.466C399.612 110.038 399.773 109.619 399.842 108.972C399.786 108.454 399.693 108.154 399.401 107.724C398.585 107.175 397.871 107.175 397.054 107.724Z" fill="url(#paint31_linear_41_2132)"/>
<path d="M252.688 105.634C253.387 106.142 254 107.125 254.141 107.986C254.242 109.413 254.163 110.612 253.261 111.772C252.471 112.622 251.538 113.051 250.386 113.154C248.829 113.169 247.609 112.975 246.44 111.84C245.654 110.89 245.343 109.775 245.429 108.558C245.589 107.357 246.129 106.27 247.097 105.523C248.887 104.405 250.924 104.589 252.688 105.634ZM248.664 107.724C248.31 108.236 248.202 108.692 248.227 109.305C248.322 109.835 248.611 110.205 249.023 110.532C249.626 110.7 250.152 110.697 250.726 110.466C251.222 110.038 251.383 109.619 251.451 108.972C251.396 108.454 251.303 108.154 251.011 107.724C250.195 107.175 249.481 107.175 248.664 107.724Z" fill="url(#paint32_linear_41_2132)"/>
<path d="M363.934 105.359C365.042 106.158 365.55 106.937 365.8 108.274C365.891 108.833 365.874 109.116 365.759 109.694C363.909 109.694 362.059 109.694 360.152 109.694C360.452 110.432 360.452 110.432 360.764 110.663C361.215 110.786 361.652 110.842 362.108 110.745C362.219 110.658 362.33 110.571 362.445 110.481C363.071 110.114 363.598 110.162 364.309 110.187C364.436 110.189 364.563 110.192 364.694 110.194C365.006 110.2 365.317 110.209 365.629 110.22C365.384 111.277 364.811 112.038 363.904 112.649C362.767 113.238 361.4 113.289 360.158 113.029C359.049 112.63 358.192 111.884 357.675 110.819C357.183 109.573 357.178 108.396 357.671 107.139C358.201 106.077 359.043 105.32 360.156 104.92C361.412 104.639 362.819 104.664 363.934 105.359ZM360.283 107.592C360.24 107.766 360.197 107.939 360.152 108.118C361.099 108.118 362.046 108.118 363.021 108.118C362.77 107.436 362.77 107.436 362.239 107.067C361.468 106.927 360.816 106.968 360.283 107.592Z" fill="url(#paint33_linear_41_2132)"/>
<path d="M224.15 105.359C225.257 106.158 225.766 106.937 226.016 108.274C226.107 108.833 226.09 109.116 225.975 109.694C224.125 109.694 222.275 109.694 220.368 109.694C220.668 110.432 220.668 110.432 220.979 110.663C221.43 110.786 221.868 110.842 222.324 110.745C222.435 110.658 222.546 110.571 222.66 110.481C223.287 110.114 223.814 110.162 224.525 110.187C224.652 110.189 224.779 110.192 224.91 110.194C225.222 110.2 225.533 110.209 225.845 110.22C225.6 111.277 225.027 112.038 224.12 112.649C222.983 113.238 221.616 113.289 220.374 113.029C219.265 112.63 218.408 111.884 217.891 110.819C217.399 109.573 217.394 108.396 217.887 107.139C218.417 106.077 219.259 105.32 220.372 104.92C221.628 104.639 223.035 104.664 224.15 105.359ZM220.499 107.592C220.456 107.766 220.413 107.939 220.368 108.118C221.315 108.118 222.262 108.118 223.237 108.118C222.986 107.436 222.986 107.436 222.455 107.067C221.684 106.927 221.032 106.968 220.499 107.592Z" fill="url(#paint34_linear_41_2132)"/>
<path d="M448.3 105.096C449.29 105.096 450.279 105.096 451.299 105.096C452.009 106.917 452.009 106.917 452.733 108.775C452.989 108.388 453.123 108.059 453.276 107.624C453.328 107.477 453.38 107.33 453.434 107.178C453.515 106.948 453.515 106.948 453.597 106.714C453.679 106.481 453.679 106.481 453.763 106.244C453.898 105.862 454.033 105.479 454.168 105.096C455.157 105.096 456.147 105.096 457.167 105.096C456.902 105.897 456.629 106.659 456.294 107.427C456.248 107.533 456.202 107.639 456.155 107.749C456.058 107.972 455.961 108.196 455.863 108.42C455.719 108.753 455.575 109.086 455.431 109.419C454.946 110.54 454.45 111.657 453.938 112.766C453.869 112.919 453.869 112.919 453.798 113.076C453.296 114.151 452.622 115.04 451.56 115.606C451.03 115.767 450.511 115.752 449.962 115.745C449.629 115.743 449.295 115.74 448.952 115.737C448.952 114.957 448.952 114.177 448.952 113.373C449.175 113.359 449.398 113.345 449.628 113.332C450.398 113.259 450.398 113.259 451.038 112.847C451.238 112.574 451.238 112.574 451.299 112.19C451.194 111.78 451.014 111.409 450.834 111.027C450.757 110.859 450.757 110.859 450.68 110.687C450.516 110.328 450.349 109.97 450.182 109.612C450.073 109.374 449.965 109.136 449.856 108.898C449.484 108.084 449.109 107.271 448.729 106.46C448.67 106.331 448.61 106.203 448.549 106.07C448.499 105.965 448.45 105.859 448.399 105.751C448.3 105.49 448.3 105.49 448.3 105.096Z" fill="url(#paint35_linear_41_2132)"/>
<path d="M426.263 105.096C427.252 105.096 428.242 105.096 429.262 105.096C429.972 106.917 429.972 106.917 430.696 108.775C430.952 108.388 431.086 108.059 431.239 107.624C431.291 107.477 431.343 107.33 431.397 107.178C431.478 106.948 431.478 106.948 431.56 106.714C431.642 106.481 431.642 106.481 431.726 106.244C431.861 105.862 431.996 105.479 432.13 105.096C433.12 105.096 434.11 105.096 435.13 105.096C434.865 105.897 434.592 106.659 434.257 107.427C434.211 107.533 434.165 107.639 434.118 107.749C434.021 107.972 433.924 108.196 433.826 108.42C433.681 108.753 433.537 109.086 433.394 109.419C432.909 110.54 432.413 111.657 431.901 112.766C431.832 112.919 431.832 112.919 431.761 113.076C431.259 114.151 430.585 115.04 429.523 115.606C428.993 115.767 428.473 115.752 427.925 115.745C427.592 115.743 427.258 115.74 426.915 115.737C426.915 114.957 426.915 114.177 426.915 113.373C427.138 113.359 427.361 113.345 427.591 113.332C428.36 113.259 428.36 113.259 429.001 112.847C429.201 112.574 429.201 112.574 429.262 112.19C429.157 111.78 428.977 111.409 428.797 111.027C428.72 110.859 428.72 110.859 428.642 110.687C428.479 110.328 428.312 109.97 428.145 109.612C428.036 109.374 427.928 109.136 427.819 108.898C427.447 108.084 427.072 107.271 426.692 106.46C426.633 106.331 426.573 106.203 426.512 106.07C426.462 105.965 426.413 105.859 426.362 105.751C426.263 105.49 426.263 105.49 426.263 105.096Z" fill="url(#paint36_linear_41_2132)"/>
<path d="M575.208 105.194C576.021 105.783 576.379 106.343 576.609 107.33C576.656 107.781 576.655 108.227 576.647 108.681C576.647 108.804 576.646 108.928 576.645 109.056C576.643 109.446 576.638 109.837 576.633 110.228C576.631 110.495 576.63 110.761 576.628 111.028C576.624 111.678 576.616 112.328 576.609 112.978C575.705 112.978 574.802 112.978 573.871 112.978C573.864 112.646 573.858 112.314 573.851 111.972C573.844 111.648 573.837 111.325 573.829 111.001C573.824 110.777 573.82 110.553 573.816 110.329C573.81 110.006 573.802 109.684 573.794 109.361C573.793 109.261 573.791 109.162 573.79 109.06C573.774 108.481 573.69 108 573.479 107.461C573.027 107.344 572.776 107.297 572.338 107.477C571.987 107.772 571.918 107.941 571.784 108.381C571.754 108.732 571.736 109.07 571.73 109.422C571.728 109.52 571.725 109.618 571.723 109.719C571.715 110.031 571.709 110.343 571.703 110.655C571.698 110.867 571.693 111.079 571.687 111.291C571.675 111.81 571.664 112.329 571.654 112.847C570.75 112.847 569.847 112.847 568.916 112.847C568.916 110.289 568.916 107.732 568.916 105.096C569.561 105.096 570.206 105.096 570.871 105.096C571.001 105.27 571.13 105.443 571.263 105.622C571.376 105.54 571.489 105.459 571.605 105.375C572.683 104.692 574.077 104.514 575.208 105.194Z" fill="url(#paint37_linear_41_2132)"/>
<path d="M391.35 105.194C392.163 105.783 392.521 106.343 392.751 107.33C392.798 107.781 392.797 108.227 392.789 108.681C392.789 108.804 392.788 108.928 392.787 109.056C392.785 109.446 392.78 109.837 392.775 110.228C392.773 110.495 392.772 110.761 392.77 111.028C392.766 111.678 392.758 112.328 392.751 112.978C391.847 112.978 390.944 112.978 390.013 112.978C390.006 112.646 390 112.314 389.993 111.972C389.986 111.648 389.979 111.325 389.971 111.001C389.966 110.777 389.962 110.553 389.958 110.329C389.952 110.006 389.944 109.684 389.936 109.361C389.935 109.261 389.933 109.162 389.932 109.06C389.916 108.481 389.832 108 389.621 107.461C389.169 107.344 388.918 107.297 388.48 107.477C388.129 107.772 388.06 107.941 387.926 108.381C387.896 108.732 387.878 109.07 387.872 109.422C387.87 109.52 387.867 109.618 387.865 109.719C387.857 110.031 387.851 110.343 387.845 110.655C387.84 110.867 387.835 111.079 387.83 111.291C387.817 111.81 387.806 112.329 387.796 112.847C386.892 112.847 385.989 112.847 385.058 112.847C385.058 110.289 385.058 107.732 385.058 105.096C385.703 105.096 386.349 105.096 387.014 105.096C387.143 105.27 387.272 105.443 387.405 105.622C387.518 105.54 387.631 105.459 387.747 105.375C388.825 104.692 390.219 104.514 391.35 105.194Z" fill="url(#paint38_linear_41_2132)"/>
<path d="M373.062 105.359C373.96 106.009 374.603 106.757 374.887 107.855C374.887 108.028 374.887 108.202 374.887 108.381C374.439 108.4 373.991 108.411 373.542 108.422C373.415 108.427 373.288 108.433 373.157 108.438C372.809 108.444 372.491 108.444 372.149 108.381C371.899 108.066 371.899 108.066 371.758 107.724C371.37 107.45 371.102 107.437 370.641 107.502C370.492 107.522 370.492 107.522 370.339 107.542C370.039 107.59 370.039 107.59 369.671 107.724C369.413 108.3 369.355 108.804 369.411 109.431C369.566 109.846 369.682 110.125 370.03 110.4C370.596 110.559 371.064 110.56 371.603 110.318C371.937 110.082 371.937 110.082 372.149 109.563C373.052 109.563 373.956 109.563 374.887 109.563C374.721 110.905 374.246 111.679 373.206 112.526C372.15 113.255 370.902 113.219 369.671 113.11C368.661 112.895 367.857 112.322 367.194 111.533C366.462 110.341 366.275 109.187 366.562 107.825C366.947 106.554 367.745 105.702 368.896 105.084C370.196 104.551 371.858 104.63 373.062 105.359Z" fill="url(#paint39_linear_41_2132)"/>
<path d="M326.119 105.359C327.018 106.009 327.66 106.757 327.945 107.855C327.945 108.028 327.945 108.202 327.945 108.381C327.497 108.4 327.048 108.411 326.6 108.422C326.473 108.427 326.345 108.433 326.214 108.438C325.867 108.444 325.548 108.444 325.206 108.381C324.956 108.066 324.956 108.066 324.815 107.724C324.428 107.45 324.16 107.437 323.699 107.502C323.549 107.522 323.549 107.522 323.397 107.542C323.097 107.59 323.097 107.59 322.729 107.724C322.47 108.3 322.413 108.804 322.468 109.431C322.623 109.846 322.74 110.125 323.088 110.4C323.654 110.559 324.121 110.56 324.66 110.318C324.994 110.082 324.994 110.082 325.206 109.563C326.11 109.563 327.014 109.563 327.945 109.563C327.778 110.905 327.303 111.679 326.263 112.526C325.208 113.255 323.96 113.219 322.729 113.11C321.718 112.895 320.915 112.322 320.251 111.533C319.52 110.341 319.332 109.187 319.62 107.825C320.004 106.554 320.803 105.702 321.953 105.084C323.254 104.551 324.916 104.63 326.119 105.359Z" fill="url(#paint40_linear_41_2132)"/>
<path d="M500.588 105.096C501.492 105.096 502.395 105.096 503.326 105.096C503.333 105.4 503.339 105.704 503.346 106.017C503.353 106.313 503.36 106.609 503.368 106.905C503.373 107.11 503.377 107.315 503.381 107.52C503.387 107.815 503.395 108.111 503.403 108.406C503.404 108.497 503.406 108.588 503.407 108.681C503.428 109.366 503.483 109.984 503.978 110.482C504.46 110.509 504.823 110.505 505.282 110.351C505.42 109.777 505.441 109.212 505.454 108.624C505.457 108.523 505.459 108.422 505.462 108.318C505.471 107.997 505.478 107.675 505.486 107.354C505.492 107.136 505.497 106.917 505.503 106.699C505.517 106.165 505.53 105.63 505.543 105.096C506.447 105.096 507.35 105.096 508.281 105.096C508.293 105.821 508.304 106.545 508.31 107.269C508.313 107.515 508.316 107.761 508.321 108.007C508.374 110.977 508.374 110.977 507.352 112.174C506.32 113.098 505.178 113.215 503.848 113.16C503.202 113.112 502.691 112.952 502.153 112.584C502.069 112.527 501.985 112.47 501.899 112.411C501.123 111.811 500.739 111.052 500.588 110.088C500.571 109.703 500.573 109.318 500.575 108.932C500.576 108.822 500.576 108.712 500.576 108.599C500.577 108.25 500.578 107.901 500.58 107.551C500.581 107.314 500.581 107.076 500.582 106.839C500.583 106.258 500.586 105.677 500.588 105.096Z" fill="url(#paint41_linear_41_2132)"/>
<path d="M349.59 102.732C352.301 102.732 355.012 102.732 357.805 102.732C357.805 103.599 357.805 104.466 357.805 105.359C356.902 105.359 355.998 105.359 355.067 105.359C355.067 107.83 355.067 110.301 355.067 112.847C354.12 112.847 353.174 112.847 352.198 112.847C352.198 110.376 352.198 107.905 352.198 105.359C351.338 105.359 350.477 105.359 349.59 105.359C349.59 104.492 349.59 103.625 349.59 102.732Z" fill="url(#paint42_linear_41_2132)"/>
<path d="M313.528 101.927C313.689 101.929 313.689 101.929 313.854 101.931C314.118 101.934 314.381 101.938 314.644 101.943C314.644 102.68 314.644 103.417 314.644 104.177C314.128 104.22 313.611 104.263 313.079 104.308C312.993 104.612 312.907 104.915 312.819 105.228C313.421 105.228 314.023 105.228 314.644 105.228C314.644 105.965 314.644 106.702 314.644 107.461C314.085 107.461 313.525 107.461 312.949 107.461C312.949 109.238 312.949 111.016 312.949 112.847C312.045 112.847 311.142 112.847 310.211 112.847C310.211 111.07 310.211 109.292 310.211 107.461C309.78 107.461 309.35 107.461 308.907 107.461C308.907 106.724 308.907 105.987 308.907 105.228C309.337 105.228 309.767 105.228 310.211 105.228C310.205 105.136 310.199 105.043 310.192 104.948C310.16 104.082 310.22 103.445 310.732 102.732C311.517 101.92 312.471 101.905 313.528 101.927Z" fill="url(#paint43_linear_41_2132)"/>
<path d="M209.024 105.096C210.014 105.096 211.003 105.096 212.023 105.096C212.453 106.397 212.884 107.697 213.327 109.037C213.544 108.6 213.693 108.21 213.837 107.747C213.882 107.601 213.928 107.455 213.975 107.305C214.022 107.153 214.069 107.001 214.117 106.845C214.211 106.543 214.305 106.242 214.399 105.94C214.441 105.807 214.482 105.673 214.525 105.536C214.631 105.228 214.631 105.228 214.761 105.096C214.974 105.085 215.188 105.082 215.402 105.083C215.595 105.084 215.595 105.084 215.793 105.085C215.928 105.086 216.064 105.087 216.204 105.088C216.408 105.089 216.408 105.089 216.617 105.09C216.954 105.091 217.292 105.094 217.63 105.096C217.547 105.58 217.415 106.009 217.236 106.465C217.181 106.604 217.127 106.743 217.071 106.886C216.982 107.108 216.982 107.108 216.892 107.336C216.832 107.489 216.772 107.642 216.71 107.8C216.582 108.124 216.455 108.447 216.327 108.77C216.163 109.185 215.999 109.6 215.836 110.016C215.681 110.411 215.525 110.807 215.368 111.203C215.31 111.352 215.251 111.502 215.19 111.656C215.136 111.793 215.081 111.931 215.025 112.072C214.977 112.194 214.93 112.315 214.88 112.44C214.761 112.716 214.761 112.716 214.631 112.847C214.437 112.859 214.242 112.861 214.048 112.86C213.93 112.86 213.813 112.859 213.692 112.859C213.508 112.857 213.508 112.857 213.319 112.855C213.195 112.855 213.071 112.854 212.944 112.854C212.637 112.852 212.33 112.85 212.023 112.847C211.995 112.778 211.967 112.709 211.938 112.638C211.644 111.914 211.35 111.189 211.056 110.464C210.947 110.195 210.837 109.925 210.728 109.655C210.622 109.393 210.515 109.132 210.409 108.87C210.306 108.615 210.202 108.36 210.099 108.105C209.887 107.583 209.675 107.061 209.455 106.542C209.395 106.402 209.335 106.261 209.274 106.116C209.2 105.944 209.2 105.944 209.124 105.769C209.024 105.49 209.024 105.49 209.024 105.096Z" fill="url(#paint44_linear_41_2132)"/>
<path d="M551.312 102.732C551.527 102.732 551.742 102.732 551.964 102.732C551.964 103.512 551.964 104.292 551.964 105.096C552.61 105.096 553.255 105.096 553.92 105.096C553.92 105.79 553.92 106.484 553.92 107.198C553.318 107.198 552.715 107.198 552.095 107.198C552.113 107.653 552.132 108.107 552.152 108.561C552.157 108.691 552.162 108.82 552.167 108.953C552.173 109.077 552.178 109.2 552.184 109.328C552.191 109.499 552.191 109.499 552.198 109.674C552.209 109.963 552.209 109.963 552.355 110.22C552.752 110.311 552.752 110.311 553.211 110.367C553.488 110.405 553.765 110.443 554.05 110.482C554.05 111.263 554.05 112.043 554.05 112.847C553.594 112.861 553.138 112.872 552.681 112.88C552.553 112.884 552.425 112.889 552.293 112.893C551.456 112.905 550.832 112.815 550.139 112.322C549.899 112.083 549.899 112.083 549.756 111.854C549.706 111.778 549.656 111.702 549.605 111.623C549.336 111.121 549.341 110.696 549.344 110.136C549.344 109.965 549.344 109.795 549.345 109.619C549.346 109.439 549.347 109.259 549.348 109.078C549.349 108.897 549.349 108.715 549.35 108.533C549.351 108.088 549.354 107.643 549.356 107.198C548.883 107.198 548.41 107.198 547.922 107.198C547.87 106.702 547.865 106.483 548.175 106.083C548.288 105.979 548.401 105.876 548.517 105.77C548.931 105.377 549.331 104.991 549.699 104.554C550.099 104.081 550.53 103.646 550.973 103.213C551.193 103.004 551.193 103.004 551.312 102.732Z" fill="url(#paint45_linear_41_2132)"/>
<path d="M512.454 102.732C512.669 102.732 512.885 102.732 513.106 102.732C513.106 103.512 513.106 104.292 513.106 105.096C513.752 105.096 514.397 105.096 515.062 105.096C515.062 105.79 515.062 106.484 515.062 107.198C514.46 107.198 513.857 107.198 513.237 107.198C513.255 107.653 513.274 108.107 513.294 108.561C513.299 108.691 513.304 108.82 513.309 108.953C513.315 109.077 513.32 109.2 513.326 109.328C513.333 109.499 513.333 109.499 513.34 109.674C513.351 109.963 513.351 109.963 513.497 110.22C513.894 110.311 513.894 110.311 514.353 110.367C514.63 110.405 514.907 110.443 515.193 110.482C515.193 111.263 515.193 112.043 515.193 112.847C514.736 112.861 514.28 112.872 513.823 112.88C513.695 112.884 513.567 112.889 513.435 112.893C512.599 112.905 511.974 112.815 511.281 112.322C511.041 112.083 511.041 112.083 510.898 111.854C510.848 111.778 510.798 111.702 510.747 111.623C510.478 111.121 510.483 110.696 510.486 110.136C510.486 109.965 510.486 109.795 510.487 109.619C510.488 109.439 510.489 109.259 510.49 109.078C510.491 108.897 510.491 108.715 510.492 108.533C510.494 108.088 510.496 107.643 510.498 107.198C510.025 107.198 509.552 107.198 509.064 107.198C509.012 106.702 509.007 106.483 509.317 106.083C509.43 105.979 509.543 105.876 509.659 105.77C510.073 105.377 510.473 104.991 510.841 104.554C511.242 104.081 511.672 103.646 512.115 103.213C512.335 103.004 512.335 103.004 512.454 102.732Z" fill="url(#paint46_linear_41_2132)"/>
<path d="M301.344 102.732C301.559 102.732 301.774 102.732 301.996 102.732C301.996 103.512 301.996 104.292 301.996 105.096C302.641 105.096 303.287 105.096 303.952 105.096C303.952 105.79 303.952 106.484 303.952 107.198C303.349 107.198 302.747 107.198 302.126 107.198C302.145 107.653 302.164 108.107 302.183 108.561C302.188 108.691 302.194 108.82 302.199 108.953C302.204 109.077 302.21 109.2 302.215 109.328C302.223 109.499 302.223 109.499 302.23 109.674C302.24 109.963 302.24 109.963 302.387 110.22C302.783 110.311 302.783 110.311 303.243 110.367C303.52 110.405 303.797 110.443 304.082 110.482C304.082 111.263 304.082 112.043 304.082 112.847C303.626 112.861 303.17 112.872 302.713 112.88C302.585 112.884 302.457 112.889 302.325 112.893C301.488 112.905 300.864 112.815 300.17 112.322C299.93 112.083 299.93 112.083 299.787 111.854C299.738 111.778 299.688 111.702 299.637 111.623C299.368 111.121 299.373 110.696 299.375 110.136C299.376 109.965 299.376 109.795 299.377 109.619C299.378 109.439 299.379 109.259 299.38 109.078C299.38 108.897 299.381 108.715 299.382 108.533C299.383 108.088 299.385 107.643 299.388 107.198C298.915 107.198 298.441 107.198 297.954 107.198C297.902 106.702 297.897 106.483 298.207 106.083C298.32 105.979 298.432 105.876 298.549 105.77C298.963 105.377 299.362 104.991 299.73 104.554C300.131 104.081 300.561 103.646 301.005 103.213C301.225 103.004 301.225 103.004 301.344 102.732Z" fill="url(#paint47_linear_41_2132)"/>
<path d="M201.722 102.732C201.937 102.732 202.152 102.732 202.374 102.732C202.374 103.512 202.374 104.292 202.374 105.096C203.019 105.096 203.665 105.096 204.33 105.096C204.33 105.79 204.33 106.484 204.33 107.198C203.727 107.198 203.125 107.198 202.504 107.198C202.523 107.653 202.542 108.107 202.561 108.561C202.566 108.691 202.572 108.82 202.577 108.953C202.582 109.077 202.588 109.2 202.593 109.328C202.601 109.499 202.601 109.499 202.608 109.674C202.618 109.963 202.618 109.963 202.765 110.22C203.161 110.311 203.161 110.311 203.621 110.367C203.898 110.405 204.175 110.443 204.46 110.482C204.46 111.263 204.46 112.043 204.46 112.847C204.004 112.861 203.548 112.872 203.091 112.88C202.963 112.884 202.835 112.889 202.703 112.893C201.866 112.905 201.241 112.815 200.548 112.322C200.308 112.083 200.308 112.083 200.165 111.854C200.116 111.778 200.066 111.702 200.015 111.623C199.746 111.121 199.751 110.696 199.753 110.136C199.754 109.965 199.754 109.795 199.754 109.619C199.756 109.439 199.757 109.259 199.758 109.078C199.758 108.897 199.759 108.715 199.76 108.533C199.761 108.088 199.763 107.643 199.766 107.198C199.293 107.198 198.819 107.198 198.332 107.198C198.279 106.702 198.275 106.483 198.585 106.083C198.697 105.979 198.81 105.876 198.926 105.77C199.341 105.377 199.74 104.991 200.108 104.554C200.509 104.081 200.939 103.646 201.383 103.213C201.603 103.004 201.603 103.004 201.722 102.732Z" fill="url(#paint48_linear_41_2132)"/>
<path d="M403.705 102.206C404.608 102.206 405.512 102.206 406.443 102.206C406.443 105.718 406.443 109.229 406.443 112.847C405.539 112.847 404.636 112.847 403.705 112.847C403.705 109.336 403.705 105.824 403.705 102.206Z" fill="url(#paint49_linear_41_2132)"/>
<path d="M343.201 102.206C344.104 102.206 345.008 102.206 345.939 102.206C345.939 105.718 345.939 109.229 345.939 112.847C345.035 112.847 344.132 112.847 343.201 112.847C343.201 109.336 343.201 105.824 343.201 102.206Z" fill="url(#paint50_linear_41_2132)"/>
<path d="M275.004 102.206C275.908 102.206 276.811 102.206 277.742 102.206C277.742 105.718 277.742 109.229 277.742 112.847C276.839 112.847 275.935 112.847 275.004 112.847C275.004 109.336 275.004 105.824 275.004 102.206Z" fill="url(#paint51_linear_41_2132)"/>
<path d="M241.623 102.206C242.527 102.206 243.43 102.206 244.361 102.206C244.361 105.718 244.361 109.229 244.361 112.847C243.458 112.847 242.554 112.847 241.623 112.847C241.623 109.336 241.623 105.824 241.623 102.206Z" fill="url(#paint52_linear_41_2132)"/>
<path d="M472.684 104.965C472.684 105.832 472.684 106.699 472.684 107.592C472.293 107.622 471.903 107.652 471.512 107.682C471.192 107.716 470.905 107.765 470.597 107.855C470.466 108.411 470.439 108.956 470.426 109.524C470.423 109.62 470.42 109.715 470.417 109.813C470.409 110.116 470.401 110.418 470.393 110.721C470.388 110.926 470.382 111.132 470.376 111.338C470.362 111.841 470.349 112.344 470.336 112.847C469.433 112.847 468.529 112.847 467.598 112.847C467.598 110.289 467.598 107.732 467.598 105.096C468.244 105.096 468.889 105.096 469.554 105.096C469.683 105.313 469.812 105.53 469.945 105.753C470.031 105.672 470.117 105.591 470.206 105.507C471.009 104.934 471.697 104.965 472.684 104.965Z" fill="url(#paint53_linear_41_2132)"/>
<path d="M297.693 104.965C297.693 105.832 297.693 106.699 297.693 107.592C297.302 107.622 296.912 107.652 296.521 107.682C296.202 107.716 295.914 107.765 295.607 107.855C295.475 108.411 295.448 108.956 295.435 109.524C295.432 109.62 295.429 109.715 295.427 109.813C295.418 110.116 295.41 110.418 295.403 110.721C295.397 110.926 295.391 111.132 295.386 111.338C295.372 111.841 295.359 112.344 295.346 112.847C294.442 112.847 293.538 112.847 292.607 112.847C292.607 110.289 292.607 107.732 292.607 105.096C293.253 105.096 293.898 105.096 294.563 105.096C294.692 105.313 294.822 105.53 294.955 105.753C295.041 105.672 295.127 105.591 295.215 105.507C296.018 104.934 296.706 104.965 297.693 104.965Z" fill="url(#paint54_linear_41_2132)"/>
<path d="M555.224 105.096C556.128 105.096 557.031 105.096 557.962 105.096C557.962 107.654 557.962 110.212 557.962 112.847C557.059 112.847 556.155 112.847 555.224 112.847C555.224 110.289 555.224 107.732 555.224 105.096Z" fill="url(#paint55_linear_41_2132)"/>
<path d="M473.596 105.096C474.5 105.096 475.403 105.096 476.334 105.096C476.334 107.654 476.334 110.212 476.334 112.847C475.431 112.847 474.527 112.847 473.596 112.847C473.596 110.289 473.596 107.732 473.596 105.096Z" fill="url(#paint56_linear_41_2132)"/>
<path d="M328.988 105.096C329.891 105.096 330.795 105.096 331.726 105.096C331.726 107.654 331.726 110.212 331.726 112.847C330.822 112.847 329.919 112.847 328.988 112.847C328.988 110.289 328.988 107.732 328.988 105.096Z" fill="url(#paint57_linear_41_2132)"/>
<path d="M315.688 105.096C316.591 105.096 317.495 105.096 318.426 105.096C318.426 107.654 318.426 110.212 318.426 112.847C317.522 112.847 316.619 112.847 315.688 112.847C315.688 110.289 315.688 107.732 315.688 105.096Z" fill="url(#paint58_linear_41_2132)"/>
<path d="M305.125 105.096C306.029 105.096 306.933 105.096 307.864 105.096C307.864 107.654 307.864 110.212 307.864 112.847C306.96 112.847 306.057 112.847 305.125 112.847C305.125 110.289 305.125 107.732 305.125 105.096Z" fill="url(#paint59_linear_41_2132)"/>
<path d="M205.503 105.096C206.407 105.096 207.311 105.096 208.242 105.096C208.242 107.654 208.242 110.212 208.242 112.847C207.338 112.847 206.434 112.847 205.503 112.847C205.503 110.289 205.503 107.732 205.503 105.096Z" fill="url(#paint60_linear_41_2132)"/>
<path d="M555.224 101.812C556.128 101.812 557.031 101.812 557.962 101.812C557.962 102.592 557.962 103.373 557.962 104.177C557.059 104.177 556.155 104.177 555.224 104.177C555.224 103.396 555.224 102.616 555.224 101.812Z" fill="url(#paint61_linear_41_2132)"/>
<path d="M473.596 101.812C474.5 101.812 475.403 101.812 476.334 101.812C476.334 102.592 476.334 103.373 476.334 104.177C475.431 104.177 474.527 104.177 473.596 104.177C473.596 103.396 473.596 102.616 473.596 101.812Z" fill="url(#paint62_linear_41_2132)"/>
<path d="M328.988 101.812C329.891 101.812 330.795 101.812 331.726 101.812C331.726 102.592 331.726 103.373 331.726 104.177C330.822 104.177 329.919 104.177 328.988 104.177C328.988 103.396 328.988 102.616 328.988 101.812Z" fill="url(#paint63_linear_41_2132)"/>
<path d="M315.688 101.812C316.591 101.812 317.495 101.812 318.426 101.812C318.426 102.592 318.426 103.373 318.426 104.177C317.522 104.177 316.619 104.177 315.688 104.177C315.688 103.396 315.688 102.616 315.688 101.812Z" fill="url(#paint64_linear_41_2132)"/>
<path d="M305.125 101.812C306.029 101.812 306.933 101.812 307.864 101.812C307.864 102.592 307.864 103.373 307.864 104.177C306.96 104.177 306.057 104.177 305.125 104.177C305.125 103.396 305.125 102.616 305.125 101.812Z" fill="url(#paint65_linear_41_2132)"/>
<path d="M205.503 101.812C206.407 101.812 207.311 101.812 208.242 101.812C208.242 102.592 208.242 103.373 208.242 104.177C207.338 104.177 206.434 104.177 205.503 104.177C205.503 103.396 205.503 102.616 205.503 101.812Z" fill="url(#paint66_linear_41_2132)"/>
</g>
<defs>
<linearGradient id="paint0_linear_41_2132" x1="53.9951" y1="3.77621" x2="53.9951" y2="112.336" gradientUnits="userSpaceOnUse">
<stop stop-color="#5527D2"/>
<stop offset="1" stop-color="#9F01B6"/>
</linearGradient>
<linearGradient id="paint1_linear_41_2132" x1="260.59" y1="18.4843" x2="260.59" y2="98.9465" gradientUnits="userSpaceOnUse">
<stop stop-color="#5527D2"/>
<stop offset="1" stop-color="#9F01B6"/>
</linearGradient>
<linearGradient id="paint2_linear_41_2132" x1="448.575" y1="0.131378" x2="448.575" y2="76.5889" gradientUnits="userSpaceOnUse">
<stop stop-color="#5527D2"/>
<stop offset="1" stop-color="#9F01B6"/>
</linearGradient>
<linearGradient id="paint3_linear_41_2132" x1="515.545" y1="18.9744" x2="515.545" y2="78.4511" gradientUnits="userSpaceOnUse">
<stop stop-color="#5527D2"/>
<stop offset="1" stop-color="#9F01B6"/>
</linearGradient>
<linearGradient id="paint4_linear_41_2132" x1="189.974" y1="18.6215" x2="189.974" y2="78.5363" gradientUnits="userSpaceOnUse">
<stop stop-color="#5527D2"/>
<stop offset="1" stop-color="#9F01B6"/>
</linearGradient>
<linearGradient id="paint5_linear_41_2132" x1="331.045" y1="18.6185" x2="331.045" y2="78.5357" gradientUnits="userSpaceOnUse">
<stop stop-color="#5527D2"/>
<stop offset="1" stop-color="#9F01B6"/>
</linearGradient>
<linearGradient id="paint6_linear_41_2132" x1="390.469" y1="3.9411" x2="390.469" y2="76.6314" gradientUnits="userSpaceOnUse">
<stop stop-color="#5527D2"/>
<stop offset="1" stop-color="#9F01B6"/>
</linearGradient>
<linearGradient id="paint7_linear_41_2132" x1="567.546" y1="58.4598" x2="567.546" y2="76.5889" gradientUnits="userSpaceOnUse">
<stop stop-color="#5527D2"/>
<stop offset="1" stop-color="#9F01B6"/>
</linearGradient>
<linearGradient id="paint8_linear_41_2132" x1="97.9015" y1="92.1018" x2="97.9015" y2="112.366" gradientUnits="userSpaceOnUse">
<stop stop-color="#5527D2"/>
<stop offset="1" stop-color="#9F01B6"/>
</linearGradient>
<linearGradient id="paint9_linear_41_2132" x1="68.1358" y1="50.3833" x2="68.1358" y2="65.0763" gradientUnits="userSpaceOnUse">
<stop stop-color="#5527D2"/>
<stop offset="1" stop-color="#9F01B6"/>
</linearGradient>
<linearGradient id="paint10_linear_41_2132" x1="40.2289" y1="50.3833" x2="40.2289" y2="65.0763" gradientUnits="userSpaceOnUse">
<stop stop-color="#5527D2"/>
<stop offset="1" stop-color="#9F01B6"/>
</linearGradient>
<linearGradient id="paint11_linear_41_2132" x1="235.218" y1="102.454" x2="235.218" y2="113.16" gradientUnits="userSpaceOnUse">
<stop stop-color="#5527D2"/>
<stop offset="1" stop-color="#9F01B6"/>
</linearGradient>
<linearGradient id="paint12_linear_41_2132" x1="531.447" y1="104.771" x2="531.447" y2="112.847" gradientUnits="userSpaceOnUse">
<stop stop-color="#5527D2"/>
<stop offset="1" stop-color="#9F01B6"/>
</linearGradient>
<linearGradient id="paint13_linear_41_2132" x1="421.21" y1="104.785" x2="421.21" y2="116.029" gradientUnits="userSpaceOnUse">
<stop stop-color="#5527D2"/>
<stop offset="1" stop-color="#9F01B6"/>
</linearGradient>
<linearGradient id="paint14_linear_41_2132" x1="443.084" y1="102.732" x2="443.084" y2="112.847" gradientUnits="userSpaceOnUse">
<stop stop-color="#5527D2"/>
<stop offset="1" stop-color="#9F01B6"/>
</linearGradient>
<linearGradient id="paint15_linear_41_2132" x1="481.755" y1="102.206" x2="481.755" y2="113.182" gradientUnits="userSpaceOnUse">
<stop stop-color="#5527D2"/>
<stop offset="1" stop-color="#9F01B6"/>
</linearGradient>
<linearGradient id="paint16_linear_41_2132" x1="173.631" y1="102.206" x2="173.631" y2="113.182" gradientUnits="userSpaceOnUse">
<stop stop-color="#5527D2"/>
<stop offset="1" stop-color="#9F01B6"/>
</linearGradient>
<linearGradient id="paint17_linear_41_2132" x1="462.146" y1="102.206" x2="462.146" y2="113.148" gradientUnits="userSpaceOnUse">
<stop stop-color="#5527D2"/>
<stop offset="1" stop-color="#9F01B6"/>
</linearGradient>
<linearGradient id="paint18_linear_41_2132" x1="259.642" y1="102.206" x2="259.642" y2="113.148" gradientUnits="userSpaceOnUse">
<stop stop-color="#5527D2"/>
<stop offset="1" stop-color="#9F01B6"/>
</linearGradient>
<linearGradient id="paint19_linear_41_2132" x1="193.795" y1="104.748" x2="193.795" y2="115.737" gradientUnits="userSpaceOnUse">
<stop stop-color="#5527D2"/>
<stop offset="1" stop-color="#9F01B6"/>
</linearGradient>
<linearGradient id="paint20_linear_41_2132" x1="494.981" y1="102.732" x2="494.981" y2="112.862" gradientUnits="userSpaceOnUse">
<stop stop-color="#5527D2"/>
<stop offset="1" stop-color="#9F01B6"/>
</linearGradient>
<linearGradient id="paint21_linear_41_2132" x1="286.609" y1="102.732" x2="286.609" y2="112.862" gradientUnits="userSpaceOnUse">
<stop stop-color="#5527D2"/>
<stop offset="1" stop-color="#9F01B6"/>
</linearGradient>
<linearGradient id="paint22_linear_41_2132" x1="164.038" y1="102.732" x2="164.038" y2="112.862" gradientUnits="userSpaceOnUse">
<stop stop-color="#5527D2"/>
<stop offset="1" stop-color="#9F01B6"/>
</linearGradient>
<linearGradient id="paint23_linear_41_2132" x1="542.846" y1="104.772" x2="542.846" y2="113.182" gradientUnits="userSpaceOnUse">
<stop stop-color="#5527D2"/>
<stop offset="1" stop-color="#9F01B6"/>
</linearGradient>
<linearGradient id="paint24_linear_41_2132" x1="337.212" y1="104.772" x2="337.212" y2="113.182" gradientUnits="userSpaceOnUse">
<stop stop-color="#5527D2"/>
<stop offset="1" stop-color="#9F01B6"/>
</linearGradient>
<linearGradient id="paint25_linear_41_2132" x1="269.015" y1="104.772" x2="269.015" y2="113.182" gradientUnits="userSpaceOnUse">
<stop stop-color="#5527D2"/>
<stop offset="1" stop-color="#9F01B6"/>
</linearGradient>
<linearGradient id="paint26_linear_41_2132" x1="183.476" y1="104.772" x2="183.476" y2="113.182" gradientUnits="userSpaceOnUse">
<stop stop-color="#5527D2"/>
<stop offset="1" stop-color="#9F01B6"/>
</linearGradient>
<linearGradient id="paint27_linear_41_2132" x1="379.798" y1="102.206" x2="379.798" y2="112.847" gradientUnits="userSpaceOnUse">
<stop stop-color="#5527D2"/>
<stop offset="1" stop-color="#9F01B6"/>
</linearGradient>
<linearGradient id="paint28_linear_41_2132" x1="563.396" y1="104.764" x2="563.396" y2="113.155" gradientUnits="userSpaceOnUse">
<stop stop-color="#5527D2"/>
<stop offset="1" stop-color="#9F01B6"/>
</linearGradient>
<linearGradient id="paint29_linear_41_2132" x1="519.974" y1="104.764" x2="519.974" y2="113.155" gradientUnits="userSpaceOnUse">
<stop stop-color="#5527D2"/>
<stop offset="1" stop-color="#9F01B6"/>
</linearGradient>
<linearGradient id="paint30_linear_41_2132" x1="411.877" y1="104.764" x2="411.877" y2="113.155" gradientUnits="userSpaceOnUse">
<stop stop-color="#5527D2"/>
<stop offset="1" stop-color="#9F01B6"/>
</linearGradient>
<linearGradient id="paint31_linear_41_2132" x1="398.185" y1="104.764" x2="398.185" y2="113.155" gradientUnits="userSpaceOnUse">
<stop stop-color="#5527D2"/>
<stop offset="1" stop-color="#9F01B6"/>
</linearGradient>
<linearGradient id="paint32_linear_41_2132" x1="249.795" y1="104.764" x2="249.795" y2="113.155" gradientUnits="userSpaceOnUse">
<stop stop-color="#5527D2"/>
<stop offset="1" stop-color="#9F01B6"/>
</linearGradient>
<linearGradient id="paint33_linear_41_2132" x1="361.581" y1="104.752" x2="361.581" y2="113.178" gradientUnits="userSpaceOnUse">
<stop stop-color="#5527D2"/>
<stop offset="1" stop-color="#9F01B6"/>
</linearGradient>
<linearGradient id="paint34_linear_41_2132" x1="221.797" y1="104.752" x2="221.797" y2="113.178" gradientUnits="userSpaceOnUse">
<stop stop-color="#5527D2"/>
<stop offset="1" stop-color="#9F01B6"/>
</linearGradient>
<linearGradient id="paint35_linear_41_2132" x1="452.733" y1="105.096" x2="452.733" y2="115.749" gradientUnits="userSpaceOnUse">
<stop stop-color="#5527D2"/>
<stop offset="1" stop-color="#9F01B6"/>
</linearGradient>
<linearGradient id="paint36_linear_41_2132" x1="430.696" y1="105.096" x2="430.696" y2="115.749" gradientUnits="userSpaceOnUse">
<stop stop-color="#5527D2"/>
<stop offset="1" stop-color="#9F01B6"/>
</linearGradient>
<linearGradient id="paint37_linear_41_2132" x1="572.783" y1="104.765" x2="572.783" y2="112.978" gradientUnits="userSpaceOnUse">
<stop stop-color="#5527D2"/>
<stop offset="1" stop-color="#9F01B6"/>
</linearGradient>
<linearGradient id="paint38_linear_41_2132" x1="388.925" y1="104.765" x2="388.925" y2="112.978" gradientUnits="userSpaceOnUse">
<stop stop-color="#5527D2"/>
<stop offset="1" stop-color="#9F01B6"/>
</linearGradient>
<linearGradient id="paint39_linear_41_2132" x1="370.66" y1="104.739" x2="370.66" y2="113.169" gradientUnits="userSpaceOnUse">
<stop stop-color="#5527D2"/>
<stop offset="1" stop-color="#9F01B6"/>
</linearGradient>
<linearGradient id="paint40_linear_41_2132" x1="323.718" y1="104.739" x2="323.718" y2="113.169" gradientUnits="userSpaceOnUse">
<stop stop-color="#5527D2"/>
<stop offset="1" stop-color="#9F01B6"/>
</linearGradient>
<linearGradient id="paint41_linear_41_2132" x1="504.456" y1="105.096" x2="504.456" y2="113.172" gradientUnits="userSpaceOnUse">
<stop stop-color="#5527D2"/>
<stop offset="1" stop-color="#9F01B6"/>
</linearGradient>
<linearGradient id="paint42_linear_41_2132" x1="353.698" y1="102.732" x2="353.698" y2="112.847" gradientUnits="userSpaceOnUse">
<stop stop-color="#5527D2"/>
<stop offset="1" stop-color="#9F01B6"/>
</linearGradient>
<linearGradient id="paint43_linear_41_2132" x1="311.775" y1="101.922" x2="311.775" y2="112.847" gradientUnits="userSpaceOnUse">
<stop stop-color="#5527D2"/>
<stop offset="1" stop-color="#9F01B6"/>
</linearGradient>
<linearGradient id="paint44_linear_41_2132" x1="213.327" y1="105.083" x2="213.327" y2="112.86" gradientUnits="userSpaceOnUse">
<stop stop-color="#5527D2"/>
<stop offset="1" stop-color="#9F01B6"/>
</linearGradient>
<linearGradient id="paint45_linear_41_2132" x1="550.973" y1="102.732" x2="550.973" y2="112.894" gradientUnits="userSpaceOnUse">
<stop stop-color="#5527D2"/>
<stop offset="1" stop-color="#9F01B6"/>
</linearGradient>
<linearGradient id="paint46_linear_41_2132" x1="512.115" y1="102.732" x2="512.115" y2="112.894" gradientUnits="userSpaceOnUse">
<stop stop-color="#5527D2"/>
<stop offset="1" stop-color="#9F01B6"/>
</linearGradient>
<linearGradient id="paint47_linear_41_2132" x1="301.004" y1="102.732" x2="301.004" y2="112.894" gradientUnits="userSpaceOnUse">
<stop stop-color="#5527D2"/>
<stop offset="1" stop-color="#9F01B6"/>
</linearGradient>
<linearGradient id="paint48_linear_41_2132" x1="201.382" y1="102.732" x2="201.382" y2="112.894" gradientUnits="userSpaceOnUse">
<stop stop-color="#5527D2"/>
<stop offset="1" stop-color="#9F01B6"/>
</linearGradient>
<linearGradient id="paint49_linear_41_2132" x1="405.074" y1="102.206" x2="405.074" y2="112.847" gradientUnits="userSpaceOnUse">
<stop stop-color="#5527D2"/>
<stop offset="1" stop-color="#9F01B6"/>
</linearGradient>
<linearGradient id="paint50_linear_41_2132" x1="344.57" y1="102.206" x2="344.57" y2="112.847" gradientUnits="userSpaceOnUse">
<stop stop-color="#5527D2"/>
<stop offset="1" stop-color="#9F01B6"/>
</linearGradient>
<linearGradient id="paint51_linear_41_2132" x1="276.373" y1="102.206" x2="276.373" y2="112.847" gradientUnits="userSpaceOnUse">
<stop stop-color="#5527D2"/>
<stop offset="1" stop-color="#9F01B6"/>
</linearGradient>
<linearGradient id="paint52_linear_41_2132" x1="242.992" y1="102.206" x2="242.992" y2="112.847" gradientUnits="userSpaceOnUse">
<stop stop-color="#5527D2"/>
<stop offset="1" stop-color="#9F01B6"/>
</linearGradient>
<linearGradient id="paint53_linear_41_2132" x1="470.141" y1="104.965" x2="470.141" y2="112.847" gradientUnits="userSpaceOnUse">
<stop stop-color="#5527D2"/>
<stop offset="1" stop-color="#9F01B6"/>
</linearGradient>
<linearGradient id="paint54_linear_41_2132" x1="295.15" y1="104.965" x2="295.15" y2="112.847" gradientUnits="userSpaceOnUse">
<stop stop-color="#5527D2"/>
<stop offset="1" stop-color="#9F01B6"/>
</linearGradient>
<linearGradient id="paint55_linear_41_2132" x1="556.593" y1="105.096" x2="556.593" y2="112.847" gradientUnits="userSpaceOnUse">
<stop stop-color="#5527D2"/>
<stop offset="1" stop-color="#9F01B6"/>
</linearGradient>
<linearGradient id="paint56_linear_41_2132" x1="474.965" y1="105.096" x2="474.965" y2="112.847" gradientUnits="userSpaceOnUse">
<stop stop-color="#5527D2"/>
<stop offset="1" stop-color="#9F01B6"/>
</linearGradient>
<linearGradient id="paint57_linear_41_2132" x1="330.357" y1="105.096" x2="330.357" y2="112.847" gradientUnits="userSpaceOnUse">
<stop stop-color="#5527D2"/>
<stop offset="1" stop-color="#9F01B6"/>
</linearGradient>
<linearGradient id="paint58_linear_41_2132" x1="317.057" y1="105.096" x2="317.057" y2="112.847" gradientUnits="userSpaceOnUse">
<stop stop-color="#5527D2"/>
<stop offset="1" stop-color="#9F01B6"/>
</linearGradient>
<linearGradient id="paint59_linear_41_2132" x1="306.495" y1="105.096" x2="306.495" y2="112.847" gradientUnits="userSpaceOnUse">
<stop stop-color="#5527D2"/>
<stop offset="1" stop-color="#9F01B6"/>
</linearGradient>
<linearGradient id="paint60_linear_41_2132" x1="206.873" y1="105.096" x2="206.873" y2="112.847" gradientUnits="userSpaceOnUse">
<stop stop-color="#5527D2"/>
<stop offset="1" stop-color="#9F01B6"/>
</linearGradient>
<linearGradient id="paint61_linear_41_2132" x1="556.593" y1="101.812" x2="556.593" y2="104.177" gradientUnits="userSpaceOnUse">
<stop stop-color="#5527D2"/>
<stop offset="1" stop-color="#9F01B6"/>
</linearGradient>
<linearGradient id="paint62_linear_41_2132" x1="474.965" y1="101.812" x2="474.965" y2="104.177" gradientUnits="userSpaceOnUse">
<stop stop-color="#5527D2"/>
<stop offset="1" stop-color="#9F01B6"/>
</linearGradient>
<linearGradient id="paint63_linear_41_2132" x1="330.357" y1="101.812" x2="330.357" y2="104.177" gradientUnits="userSpaceOnUse">
<stop stop-color="#5527D2"/>
<stop offset="1" stop-color="#9F01B6"/>
</linearGradient>
<linearGradient id="paint64_linear_41_2132" x1="317.057" y1="101.812" x2="317.057" y2="104.177" gradientUnits="userSpaceOnUse">
<stop stop-color="#5527D2"/>
<stop offset="1" stop-color="#9F01B6"/>
</linearGradient>
<linearGradient id="paint65_linear_41_2132" x1="306.495" y1="101.812" x2="306.495" y2="104.177" gradientUnits="userSpaceOnUse">
<stop stop-color="#5527D2"/>
<stop offset="1" stop-color="#9F01B6"/>
</linearGradient>
<linearGradient id="paint66_linear_41_2132" x1="206.873" y1="101.812" x2="206.873" y2="104.177" gradientUnits="userSpaceOnUse">
<stop stop-color="#5527D2"/>
<stop offset="1" stop-color="#9F01B6"/>
</linearGradient>
<clipPath id="clip0_41_2132">
<rect width="577" height="116" fill="white"/>
</clipPath>
</defs>
</svg>
