<svg width="117" height="16" viewBox="0 0 117 16" fill="none" xmlns="http://www.w3.org/2000/svg">
<path d="M2.94957 6.18182C2.94957 5.57197 3.0992 5.01515 3.39844 4.51136C3.69768 4.00758 4.0973 3.60795 4.5973 3.3125C5.10109 3.01326 5.65791 2.86364 6.26776 2.86364C6.79806 2.86364 7.28859 2.97917 7.73935 3.21023C8.1901 3.4375 8.56321 3.75 8.85867 4.14773C9.15412 4.54545 9.33404 4.99242 9.39844 5.48864H7.92117C7.85298 5.13636 7.6598 4.84848 7.34162 4.625C7.02723 4.39773 6.66927 4.28409 6.26776 4.28409C5.91927 4.28409 5.60109 4.36932 5.31321 4.53977C5.02533 4.71023 4.79616 4.93939 4.62571 5.22727C4.45526 5.51136 4.37003 5.82955 4.37003 6.18182C4.37003 6.5303 4.45526 6.84848 4.62571 7.13636C4.79616 7.42424 5.02533 7.65341 5.31321 7.82386C5.60109 7.99432 5.91927 8.07955 6.26776 8.07955C6.66927 8.07955 7.01207 7.9678 7.29617 7.74432C7.58026 7.51705 7.75829 7.22727 7.83026 6.875H9.30753C9.24313 7.37121 9.07079 7.81818 8.79048 8.21591C8.51018 8.61364 8.15223 8.92803 7.71662 9.15909C7.28101 9.38636 6.79806 9.5 6.26776 9.5C5.65791 9.5 5.10109 9.35227 4.5973 9.05682C4.0973 8.75758 3.69768 8.35606 3.39844 7.85227C3.0992 7.34848 2.94957 6.79167 2.94957 6.18182ZM6.21662 12.1818C5.39086 12.1818 4.61435 12.0265 3.88707 11.7159C3.16359 11.4053 2.52533 10.9754 1.9723 10.4261C1.42306 9.87311 0.991241 9.23485 0.676847 8.51136C0.366241 7.78788 0.212831 7.01136 0.216619 6.18182C0.220407 5.35227 0.377604 4.57576 0.68821 3.85227C1.0026 3.12879 1.43442 2.49242 1.98366 1.94318C2.53291 1.39015 3.16927 0.958333 3.89276 0.647727C4.61624 0.337121 5.39086 0.181818 6.21662 0.181818C7.04616 0.181818 7.82268 0.337121 8.54617 0.647727C9.27344 0.958333 9.9098 1.39015 10.4553 1.94318C11.0045 2.49242 11.4344 3.12879 11.745 3.85227C12.0556 4.57576 12.2128 5.35227 12.2166 6.18182C12.2204 7.01136 12.067 7.78788 11.7564 8.51136C11.4458 9.23485 11.0159 9.87311 10.4666 10.4261C9.91738 10.9754 9.27912 11.4053 8.55185 11.7159C7.82457 12.0265 7.04616 12.1818 6.21662 12.1818ZM6.21662 10.6705C6.83783 10.6705 7.42116 10.5549 7.96662 10.3239C8.51207 10.0928 8.98935 9.77273 9.39844 9.36364C9.81132 8.95076 10.1333 8.47348 10.3643 7.93182C10.5954 7.38636 10.709 6.80492 10.7053 6.1875C10.7053 5.56629 10.5878 4.98295 10.353 4.4375C10.1219 3.89205 9.79995 3.41477 9.38707 3.00568C8.97798 2.5928 8.5026 2.27083 7.96094 2.03977C7.41927 1.80871 6.83783 1.69318 6.21662 1.69318C5.5992 1.69318 5.01965 1.80871 4.47798 2.03977C3.93632 2.27083 3.45904 2.5928 3.04616 3.00568C2.63707 3.41856 2.3151 3.89773 2.08026 4.44318C1.84541 4.98485 1.72798 5.56629 1.72798 6.1875C1.7242 6.80114 1.83783 7.38068 2.06889 7.92614C2.30374 8.4678 2.62571 8.94508 3.0348 9.35795C3.44768 9.76705 3.92495 10.089 4.46662 10.3239C5.01207 10.5549 5.59541 10.6705 6.21662 10.6705ZM20.0348 12H18.1712L22.3587 0.363636H24.3871L28.5746 12H26.7109L23.4212 2.47727H23.3303L20.0348 12ZM20.3473 7.44318H26.3928V8.92045H20.3473V7.44318ZM33.6371 15.4545C32.9439 15.4545 32.3473 15.3636 31.8473 15.1818C31.3511 15 30.9458 14.7595 30.6314 14.4602C30.317 14.161 30.0821 13.8333 29.9268 13.4773L31.3871 12.875C31.4893 13.0417 31.6257 13.2178 31.7962 13.4034C31.9704 13.5928 32.2053 13.7538 32.5007 13.8864C32.8 14.0189 33.1844 14.0852 33.6541 14.0852C34.2981 14.0852 34.8303 13.928 35.2507 13.6136C35.6712 13.303 35.8814 12.8068 35.8814 12.125V10.4091H35.7734C35.6712 10.5947 35.5234 10.8011 35.3303 11.0284C35.1409 11.2557 34.8795 11.4527 34.5462 11.6193C34.2128 11.786 33.7791 11.8693 33.245 11.8693C32.5556 11.8693 31.9344 11.7083 31.3814 11.3864C30.8321 11.0606 30.3965 10.5814 30.0746 9.94886C29.7564 9.3125 29.5973 8.5303 29.5973 7.60227C29.5973 6.67424 29.7545 5.87879 30.0689 5.21591C30.3871 4.55303 30.8227 4.04545 31.3757 3.69318C31.9287 3.33712 32.5556 3.15909 33.2564 3.15909C33.7981 3.15909 34.2356 3.25 34.5689 3.43182C34.9022 3.60985 35.1617 3.81818 35.3473 4.05682C35.5367 4.29545 35.6825 4.50568 35.7848 4.6875H35.9098V3.27273H37.5746V12.1932C37.5746 12.9432 37.4003 13.5587 37.0518 14.0398C36.7034 14.5208 36.2318 14.8769 35.6371 15.108C35.0462 15.339 34.3795 15.4545 33.6371 15.4545ZM33.62 10.4602C34.1087 10.4602 34.5215 10.3466 34.8587 10.1193C35.1996 9.88826 35.4571 9.55871 35.6314 9.13068C35.8094 8.69886 35.8984 8.18182 35.8984 7.57955C35.8984 6.99242 35.8113 6.47538 35.6371 6.02841C35.4628 5.58144 35.2071 5.23295 34.87 4.98295C34.5329 4.72917 34.1162 4.60227 33.62 4.60227C33.1087 4.60227 32.6825 4.73485 32.3416 5C32.0007 5.26136 31.7431 5.61742 31.5689 6.06818C31.3984 6.51894 31.3132 7.02273 31.3132 7.57955C31.3132 8.15152 31.4003 8.65341 31.5746 9.08523C31.7488 9.51705 32.0064 9.85417 32.3473 10.0966C32.692 10.339 33.1162 10.4602 33.62 10.4602ZM42.3928 12.1932C41.8397 12.1932 41.3397 12.0909 40.8928 11.8864C40.4458 11.678 40.0916 11.3769 39.8303 10.983C39.5727 10.589 39.4439 10.1061 39.4439 9.53409C39.4439 9.04167 39.5386 8.63636 39.728 8.31818C39.9174 8 40.1731 7.74811 40.495 7.5625C40.817 7.37689 41.1768 7.23674 41.5746 7.14205C41.9723 7.04735 42.3776 6.97538 42.7905 6.92614C43.3132 6.86553 43.7375 6.81629 44.0632 6.77841C44.389 6.73674 44.6257 6.67045 44.7734 6.57955C44.9212 6.48864 44.995 6.34091 44.995 6.13636V6.09659C44.995 5.60038 44.8549 5.21591 44.5746 4.94318C44.2981 4.67045 43.8852 4.53409 43.3359 4.53409C42.764 4.53409 42.3132 4.66098 41.9837 4.91477C41.6579 5.16477 41.4325 5.44318 41.3075 5.75L39.7109 5.38636C39.9003 4.85606 40.1768 4.42803 40.5405 4.10227C40.9079 3.77273 41.3303 3.53409 41.8075 3.38636C42.2848 3.23485 42.7867 3.15909 43.3132 3.15909C43.6617 3.15909 44.031 3.20076 44.4212 3.28409C44.8151 3.36364 45.1825 3.51136 45.5234 3.72727C45.8681 3.94318 46.1503 4.25189 46.37 4.65341C46.5897 5.05114 46.6996 5.56818 46.6996 6.20455V12H45.0405V10.8068H44.9723C44.8625 11.0265 44.6977 11.2424 44.478 11.4545C44.2583 11.6667 43.9761 11.8428 43.6314 11.983C43.2867 12.1231 42.8738 12.1932 42.3928 12.1932ZM42.7621 10.8295C43.2318 10.8295 43.6333 10.7367 43.9666 10.5511C44.3037 10.3655 44.5594 10.1231 44.7337 9.82386C44.9117 9.52083 45.0007 9.19697 45.0007 8.85227V7.72727C44.9401 7.78788 44.8227 7.8447 44.6484 7.89773C44.478 7.94697 44.2829 7.99053 44.0632 8.02841C43.8435 8.0625 43.6295 8.0947 43.4212 8.125C43.2128 8.15152 43.0386 8.17424 42.8984 8.19318C42.5689 8.23485 42.2678 8.30492 41.995 8.40341C41.7261 8.50189 41.5102 8.64394 41.3473 8.82955C41.1882 9.01136 41.1087 9.25379 41.1087 9.55682C41.1087 9.97727 41.264 10.2955 41.5746 10.5114C41.8852 10.7235 42.281 10.8295 42.7621 10.8295ZM53.0362 3.27273V4.63636H48.2692V3.27273H53.0362ZM49.5476 1.18182H51.2464V9.4375C51.2464 9.76705 51.2957 10.0152 51.3942 10.1818C51.4927 10.3447 51.6196 10.4564 51.7749 10.517C51.9339 10.5739 52.1063 10.6023 52.2919 10.6023C52.4283 10.6023 52.5476 10.5928 52.6499 10.5739C52.7521 10.5549 52.8317 10.5398 52.8885 10.5284L53.1953 11.9318C53.0968 11.9697 52.9567 12.0076 52.7749 12.0455C52.593 12.0871 52.3658 12.1098 52.093 12.1136C51.6461 12.1212 51.2294 12.0417 50.843 11.875C50.4567 11.7083 50.1442 11.4508 49.9055 11.1023C49.6669 10.7538 49.5476 10.3163 49.5476 9.78977V1.18182ZM56.8018 6.81818V12H55.103V0.363636H56.7791V4.69318H56.8871C57.0916 4.22348 57.4041 3.85038 57.8246 3.57386C58.245 3.29735 58.7943 3.15909 59.4723 3.15909C60.0708 3.15909 60.5935 3.2822 61.0405 3.52841C61.4912 3.77462 61.8397 4.14205 62.0859 4.63068C62.3359 5.11553 62.4609 5.72159 62.4609 6.44886V12H60.7621V6.65341C60.7621 6.01326 60.5973 5.51705 60.2678 5.16477C59.9382 4.80871 59.4799 4.63068 58.8928 4.63068C58.4912 4.63068 58.1314 4.71591 57.8132 4.88636C57.4988 5.05682 57.2507 5.30682 57.0689 5.63636C56.8909 5.96212 56.8018 6.35606 56.8018 6.81818ZM67.2678 12.1932C66.7147 12.1932 66.2147 12.0909 65.7678 11.8864C65.3208 11.678 64.9666 11.3769 64.7053 10.983C64.4477 10.589 64.3189 10.1061 64.3189 9.53409C64.3189 9.04167 64.4136 8.63636 64.603 8.31818C64.7924 8 65.0481 7.74811 65.37 7.5625C65.692 7.37689 66.0518 7.23674 66.4496 7.14205C66.8473 7.04735 67.2526 6.97538 67.6655 6.92614C68.1882 6.86553 68.6125 6.81629 68.9382 6.77841C69.264 6.73674 69.5007 6.67045 69.6484 6.57955C69.7962 6.48864 69.87 6.34091 69.87 6.13636V6.09659C69.87 5.60038 69.7299 5.21591 69.4496 4.94318C69.1731 4.67045 68.7602 4.53409 68.2109 4.53409C67.639 4.53409 67.1882 4.66098 66.8587 4.91477C66.5329 5.16477 66.3075 5.44318 66.1825 5.75L64.5859 5.38636C64.7753 4.85606 65.0518 4.42803 65.4155 4.10227C65.7829 3.77273 66.2053 3.53409 66.6825 3.38636C67.1598 3.23485 67.6617 3.15909 68.1882 3.15909C68.5367 3.15909 68.906 3.20076 69.2962 3.28409C69.6901 3.36364 70.0575 3.51136 70.3984 3.72727C70.7431 3.94318 71.0253 4.25189 71.245 4.65341C71.4647 5.05114 71.5746 5.56818 71.5746 6.20455V12H69.9155V10.8068H69.8473C69.7375 11.0265 69.5727 11.2424 69.353 11.4545C69.1333 11.6667 68.8511 11.8428 68.5064 11.983C68.1617 12.1231 67.7488 12.1932 67.2678 12.1932ZM67.6371 10.8295C68.1068 10.8295 68.5083 10.7367 68.8416 10.5511C69.1787 10.3655 69.4344 10.1231 69.6087 9.82386C69.7867 9.52083 69.8757 9.19697 69.8757 8.85227V7.72727C69.8151 7.78788 69.6977 7.8447 69.5234 7.89773C69.353 7.94697 69.1579 7.99053 68.9382 8.02841C68.7185 8.0625 68.5045 8.0947 68.2962 8.125C68.0878 8.15152 67.9136 8.17424 67.7734 8.19318C67.4439 8.23485 67.1428 8.30492 66.87 8.40341C66.6011 8.50189 66.3852 8.64394 66.2223 8.82955C66.0632 9.01136 65.9837 9.25379 65.9837 9.55682C65.9837 9.97727 66.139 10.2955 66.4496 10.5114C66.7602 10.7235 67.156 10.8295 67.6371 10.8295ZM78.049 12V10.7273L81.9865 6.64773C82.407 6.20455 82.7536 5.81629 83.0263 5.48295C83.3028 5.14583 83.5092 4.82576 83.6456 4.52273C83.782 4.2197 83.8501 3.89773 83.8501 3.55682C83.8501 3.17045 83.7592 2.83712 83.5774 2.55682C83.3956 2.27273 83.1475 2.05492 82.8331 1.90341C82.5187 1.74811 82.1645 1.67045 81.7706 1.67045C81.3539 1.67045 80.9903 1.75568 80.6797 1.92614C80.3691 2.09659 80.1304 2.33712 79.9638 2.64773C79.7971 2.95833 79.7138 3.32197 79.7138 3.73864H78.0376C78.0376 3.0303 78.2005 2.41098 78.5263 1.88068C78.852 1.35038 79.299 0.939394 79.8672 0.647727C80.4354 0.352272 81.0812 0.204545 81.8047 0.204545C82.5357 0.204545 83.1797 0.350378 83.7365 0.642045C84.2971 0.929924 84.7346 1.32386 85.049 1.82386C85.3634 2.32008 85.5206 2.88068 85.5206 3.50568C85.5206 3.9375 85.4392 4.35985 85.2763 4.77273C85.1172 5.18561 84.8388 5.64583 84.4411 6.15341C84.0433 6.6572 83.4903 7.26894 82.782 7.98864L80.4695 10.4091V10.4943H85.7081V12H78.049ZM91.9126 12.1932C91.0149 12.1894 90.2479 11.9527 89.6115 11.483C88.9751 11.0133 88.4884 10.3295 88.1513 9.43182C87.8142 8.53409 87.6456 7.45265 87.6456 6.1875C87.6456 4.92614 87.8142 3.84848 88.1513 2.95455C88.4922 2.06061 88.9808 1.37879 89.6172 0.909091C90.2573 0.439394 91.0225 0.204545 91.9126 0.204545C92.8028 0.204545 93.5661 0.441287 94.2024 0.914772C94.8388 1.38447 95.3255 2.06629 95.6626 2.96023C96.0036 3.85038 96.174 4.92614 96.174 6.1875C96.174 7.45644 96.0054 8.53977 95.6683 9.4375C95.3312 10.3314 94.8445 11.0152 94.2081 11.4886C93.5717 11.9583 92.8066 12.1932 91.9126 12.1932ZM91.9126 10.6761C92.7005 10.6761 93.3161 10.2917 93.7592 9.52273C94.2062 8.75379 94.4297 7.64205 94.4297 6.1875C94.4297 5.22159 94.3274 4.4053 94.1229 3.73864C93.9221 3.06818 93.6323 2.56061 93.2536 2.21591C92.8786 1.86742 92.4316 1.69318 91.9126 1.69318C91.1286 1.69318 90.513 2.07954 90.0661 2.85227C89.6191 3.625 89.3937 4.73674 89.3899 6.1875C89.3899 7.1572 89.4903 7.97727 89.6911 8.64773C89.8956 9.31439 90.1854 9.82008 90.5604 10.1648C90.9354 10.5057 91.3861 10.6761 91.9126 10.6761ZM98.1896 12V10.7273L102.127 6.64773C102.548 6.20455 102.894 5.81629 103.167 5.48295C103.443 5.14583 103.65 4.82576 103.786 4.52273C103.923 4.2197 103.991 3.89773 103.991 3.55682C103.991 3.17045 103.9 2.83712 103.718 2.55682C103.536 2.27273 103.288 2.05492 102.974 1.90341C102.659 1.74811 102.305 1.67045 101.911 1.67045C101.495 1.67045 101.131 1.75568 100.82 1.92614C100.51 2.09659 100.271 2.33712 100.104 2.64773C99.9377 2.95833 99.8544 3.32197 99.8544 3.73864H98.1783C98.1783 3.0303 98.3411 2.41098 98.6669 1.88068C98.9927 1.35038 99.4396 0.939394 100.008 0.647727C100.576 0.352272 101.222 0.204545 101.945 0.204545C102.676 0.204545 103.32 0.350378 103.877 0.642045C104.438 0.929924 104.875 1.32386 105.19 1.82386C105.504 2.32008 105.661 2.88068 105.661 3.50568C105.661 3.9375 105.58 4.35985 105.417 4.77273C105.258 5.18561 104.979 5.64583 104.582 6.15341C104.184 6.6572 103.631 7.26894 102.923 7.98864L100.61 10.4091V10.4943H105.849V12H98.1896ZM107.508 9.72727V8.30682L112.536 0.363636H113.656V2.45455H112.945L109.349 8.14773V8.23864H116.241V9.72727H107.508ZM113.025 12V9.29545L113.036 8.64773V0.363636H114.701V12H113.025Z" fill="url(#paint0_linear_41_472)"/>
<defs>
<linearGradient id="paint0_linear_41_472" x1="27.3203" y1="-33" x2="61.8531" y2="36.0737" gradientUnits="userSpaceOnUse">
<stop stop-color="#5428D2"/>
<stop offset="1" stop-color="#A000B6"/>
</linearGradient>
</defs>
</svg>
